<svg width="354" height="67" viewBox="0 0 354 67" fill="none" xmlns="http://www.w3.org/2000/svg">
<path d="M84.0509 55.9399C82.2395 55.9399 80.6516 55.655 79.2795 55.0777C77.9151 54.5081 76.8514 53.6844 76.096 52.6145C75.3406 51.5445 74.9629 50.2513 74.9629 48.7425C74.9629 47.126 75.3868 45.7943 76.2425 44.7397C77.0981 43.6851 78.2697 42.8692 79.7728 42.2842C81.2759 41.7068 82.9871 41.3219 84.9065 41.1449C87.7585 40.8601 89.7781 40.583 90.942 40.3058C92.1137 40.0364 92.6995 39.59 92.6995 38.9741V38.928C92.6995 37.704 92.1753 36.7803 91.1347 36.1414C90.0941 35.5025 88.6064 35.1946 86.6717 35.1946C84.629 35.1946 83.0565 35.5564 81.9465 36.2723C80.8366 36.9881 80.2816 38.1274 80.2816 39.6746H75.4562C75.4562 37.8349 75.9341 36.2723 76.8977 34.9944C77.8535 33.7089 79.1793 32.739 80.8751 32.0616C82.5709 31.3919 84.5057 31.0532 86.6948 31.0532C88.7066 31.0532 90.5335 31.3611 92.1908 31.9692C93.848 32.5774 95.1661 33.4857 96.1451 34.6942C97.124 35.9028 97.6173 37.4038 97.6173 39.1974V50.6669C97.6173 51.2212 97.6405 51.7677 97.6867 52.2835C97.733 52.7992 97.8178 53.2688 97.9334 53.6767C98.0721 54.1463 98.234 54.5312 98.419 54.8314C98.6117 55.1316 98.7659 55.3471 98.8815 55.4626H93.9868C93.8943 55.3702 93.7632 55.1778 93.5937 54.8853C93.4164 54.5928 93.2622 54.2464 93.1312 53.8538C92.9924 53.4766 92.8922 53.0455 92.8228 52.5529C92.7535 52.0602 92.7226 51.5291 92.7226 50.9595L93.6322 51.5907C93.1774 52.4682 92.4991 53.2303 91.5818 53.8769C90.6645 54.5235 89.57 55.0315 88.2981 55.3933C87.0185 55.7551 85.6079 55.9399 84.0509 55.9399ZM85.0684 51.8678C86.4713 51.8678 87.7508 51.6445 88.9071 51.1981C90.0633 50.7516 90.9883 50.0742 91.682 49.1582C92.3758 48.2422 92.7226 47.0952 92.7226 45.7096V41.7299L93.8789 43.2464C92.9153 43.6235 91.7283 43.9315 90.3331 44.1624C88.9379 44.3933 87.4965 44.5858 86.0165 44.7397C83.9738 44.9245 82.4476 45.2709 81.4147 45.7943C80.3895 46.3177 79.873 47.1799 79.873 48.3884C79.873 49.597 80.297 50.4206 81.1526 51.0056C82.0082 51.583 83.3109 51.8755 85.0607 51.8755L85.0684 51.8678Z" fill="black"/>
<path d="M102.474 55.4627V31.4305H107.391V55.4627H102.474ZM119.601 55.4627V41.4529C119.601 40.2752 119.416 39.236 119.054 38.343C118.692 37.4424 118.098 36.7419 117.266 36.2416C116.433 35.7335 115.323 35.4872 113.936 35.4872C112.71 35.4872 111.608 35.7874 110.614 36.3955C109.627 36.996 108.841 37.8196 108.255 38.8511C107.677 39.8826 107.384 41.0603 107.384 42.3689L105.279 41.3298C105.279 39.3822 105.742 37.6349 106.659 36.0953C107.576 34.5558 108.817 33.3242 110.367 32.4158C111.916 31.5075 113.612 31.061 115.454 31.061C117.297 31.061 118.985 31.4305 120.334 32.1618C121.683 32.8931 122.723 33.9323 123.44 35.2871C124.157 36.6342 124.519 38.2507 124.519 40.1212V55.4858H119.601V55.4627Z" fill="black"/>
<path d="M139.566 55.9401C137.585 55.9401 135.766 55.4628 134.108 54.5006C132.443 53.5461 131.118 52.1297 130.123 50.2592C129.129 48.3886 128.628 46.1024 128.628 43.4005C128.628 40.6986 129.137 38.5202 130.146 36.6804C131.156 34.8407 132.497 33.4397 134.155 32.4852C135.82 31.523 137.623 31.0457 139.574 31.0457C141.524 31.0457 143.189 31.4999 144.8 32.4005C146.411 33.3012 147.706 34.5636 148.685 36.1647C149.664 37.7658 150.157 39.621 150.157 41.7224V42.038L147.305 42.1304V41.8379C147.305 40.5832 146.989 39.4747 146.357 38.4971C145.725 37.5272 144.885 36.7574 143.852 36.1878C142.819 35.6259 141.716 35.341 140.553 35.341C138.602 35.341 136.976 35.9953 135.658 37.2963C134.34 38.6049 133.685 40.6371 133.685 43.3928C133.685 46.1486 134.347 48.1731 135.666 49.4894C136.984 50.8134 138.618 51.4677 140.545 51.4677C141.755 51.4677 142.873 51.1752 143.898 50.5979C144.923 50.0205 145.748 49.22 146.365 48.2116C146.981 47.2032 147.297 46.0485 147.297 44.7476L150.149 44.8631C150.149 46.9415 149.679 48.8197 148.731 50.4978C147.791 52.1682 146.519 53.4922 144.923 54.4698C143.328 55.4397 141.539 55.9324 139.566 55.9324V55.9401ZM147.29 55.4628V20.0996H152.231V55.4705H147.29V55.4628Z" fill="black"/>
<path d="M157.394 55.4626V31.4304H162.312V39.0973L160.994 38.5123C161.102 37.5347 161.349 36.5956 161.742 35.7103C162.135 34.8174 162.659 34.0245 163.314 33.324C163.97 32.6235 164.787 32.0693 165.75 31.6613C166.714 31.2534 167.831 31.0532 169.103 31.0532C170.067 31.0532 170.853 31.1302 171.447 31.2765C172.04 31.4304 172.41 31.5459 172.549 31.6382L171.508 36.2569C171.354 36.1491 171.053 36.0182 170.591 35.8489C170.128 35.6795 169.489 35.6026 168.679 35.6026C167.438 35.6026 166.413 35.8258 165.596 36.2569C164.779 36.6956 164.131 37.273 163.646 37.9965C163.16 38.7201 162.821 39.5053 162.613 40.3597C162.412 41.2142 162.305 42.0686 162.305 42.9308V55.4703H157.387L157.394 55.4626Z" fill="black"/>
<path d="M176.658 45.1708V41.3451H194.379L193.7 42.4766V41.9301C193.7 40.7062 193.438 39.5823 192.907 38.5508C192.375 37.5193 191.588 36.688 190.54 36.0645C189.492 35.4409 188.181 35.1253 186.609 35.1253C185.036 35.1253 183.657 35.464 182.477 36.1337C181.29 36.8034 180.373 37.7579 179.71 38.9819C179.055 40.2135 178.723 41.6838 178.723 43.4081C178.723 45.1323 179.039 46.6642 179.672 47.9189C180.304 49.1813 181.221 50.1512 182.416 50.8286C183.61 51.506 185.036 51.8447 186.701 51.8447C187.865 51.8447 188.875 51.7293 189.723 51.4906C190.579 51.2597 191.28 50.9441 191.827 50.5515C192.375 50.1589 192.799 49.7356 193.084 49.2737C193.369 48.8118 193.539 48.3577 193.585 47.9035H198.48C198.387 48.8811 198.071 49.851 197.516 50.8132C196.961 51.7754 196.19 52.6376 195.18 53.4151C194.178 54.1925 192.953 54.8083 191.511 55.2702C190.07 55.7321 188.413 55.963 186.54 55.963C184.034 55.963 181.838 55.4318 179.949 54.3773C178.061 53.3227 176.588 51.8524 175.532 49.9742C174.476 48.096 173.944 45.9406 173.944 43.5158C173.944 41.091 174.484 38.8664 175.555 36.9959C176.627 35.1253 178.114 33.6628 180.018 32.6159C181.922 31.569 184.104 31.0456 186.57 31.0456C189.037 31.0456 191.249 31.5767 193.084 32.6313C194.918 33.6859 196.337 35.1407 197.331 36.9959C198.325 38.851 198.826 40.9833 198.826 43.4004C198.826 43.6852 198.819 44.0162 198.803 44.3934C198.788 44.7705 198.765 45.0246 198.734 45.1631H176.665L176.658 45.1708ZM183.479 27.8125L188.898 22.0854H193.068L187.11 27.8125H183.487H183.479Z" fill="black"/>
<path d="M214.767 55.9171C212.293 55.9171 210.104 55.3783 208.207 54.3083C206.311 53.2383 204.831 51.7604 203.767 49.8821C202.704 48.0039 202.172 45.8485 202.172 43.4238C202.172 40.999 202.704 38.8744 203.767 37.0116C204.831 35.1487 206.311 33.6939 208.207 32.647C210.104 31.6001 212.293 31.0767 214.767 31.0767C217.241 31.0767 219.431 31.6001 221.327 32.647C223.223 33.6939 224.703 35.1487 225.767 37.0116C226.83 38.8744 227.362 41.0144 227.362 43.4238C227.362 45.8331 226.83 48.0039 225.767 49.8821C224.703 51.7604 223.223 53.2383 221.327 54.3083C219.431 55.3783 217.241 55.9171 214.767 55.9171ZM214.767 51.7065C216.278 51.7065 217.604 51.3678 218.752 50.6904C219.901 50.013 220.803 49.0508 221.45 47.8037C222.098 46.5567 222.421 45.1019 222.421 43.4238C222.421 41.7457 222.098 40.3216 221.45 39.1054C220.803 37.8814 219.901 36.9423 218.752 36.2803C217.604 35.6183 216.278 35.2873 214.767 35.2873C213.256 35.2873 211.946 35.6183 210.79 36.2803C209.633 36.9423 208.732 37.8891 208.084 39.1054C207.437 40.3293 207.113 41.7688 207.113 43.4238C207.113 45.0788 207.437 46.5567 208.084 47.8037C208.732 49.0508 209.633 50.013 210.79 50.6904C211.946 51.3678 213.272 51.7065 214.767 51.7065Z" fill="black"/>
<path d="M236.882 20.0996V55.4705H232.033V20.0996H236.882Z" fill="black"/>
<path d="M244.837 26.4579C243.989 26.4579 243.264 26.227 242.648 25.7651C242.031 25.3032 241.73 24.6643 241.73 23.8561C241.73 23.0478 242.039 22.4243 242.648 21.9701C243.257 21.516 243.989 21.2773 244.837 21.2773C245.685 21.2773 246.386 21.5083 247.003 21.9701C247.62 22.432 247.92 23.0632 247.92 23.8561C247.92 24.6489 247.612 25.3109 247.003 25.7651C246.394 26.2193 245.669 26.4579 244.837 26.4579ZM242.393 55.4628V31.4306H247.242V55.4628H242.393Z" fill="black"/>
<path d="M272.817 31.4385L265.024 55.4707H258.495L250.494 31.4385H255.566L262.141 53.4077H261.37L267.737 31.4385H272.809H272.817Z" fill="black"/>
<path d="M276.51 45.1712V41.3454H294.231L293.553 42.477V41.9304C293.553 40.7065 293.291 39.5826 292.759 38.5511C292.227 37.5197 291.441 36.6883 290.393 36.0648C289.344 35.4413 288.034 35.1257 286.461 35.1257C284.889 35.1257 283.509 35.4644 282.33 36.1341C281.143 36.8038 280.226 37.7583 279.563 38.9822C278.907 40.2138 278.576 41.6841 278.576 43.4084C278.576 45.1327 278.892 46.6645 279.524 47.9192C280.156 49.1817 281.073 50.1516 282.268 50.829C283.463 51.5064 284.889 51.8451 286.554 51.8451C287.718 51.8451 288.728 51.7296 289.576 51.491C290.431 51.26 291.133 50.9444 291.68 50.5518C292.227 50.1593 292.651 49.7359 292.936 49.274C293.222 48.8122 293.391 48.358 293.437 47.9038H298.332C298.24 48.8814 297.924 49.8514 297.369 50.8136C296.814 51.7758 296.043 52.6379 295.033 53.4154C294.031 54.1929 292.805 54.8087 291.364 55.2705C289.922 55.7324 288.265 55.9633 286.392 55.9633C283.887 55.9633 281.69 55.4322 279.802 54.3776C277.913 53.323 276.441 51.8528 275.385 49.9745C274.329 48.0963 273.797 45.9409 273.797 43.5162C273.797 41.0914 274.336 38.8668 275.408 36.9962C276.479 35.1257 277.967 33.6631 279.871 32.6162C281.775 31.5693 283.956 31.0459 286.423 31.0459C288.89 31.0459 291.102 31.577 292.936 32.6316C294.771 33.6862 296.189 35.1411 297.184 36.9962C298.178 38.8514 298.679 40.9836 298.679 43.4007C298.679 43.6855 298.671 44.0165 298.656 44.3937C298.64 44.7709 298.617 45.0249 298.586 45.1635H276.518L276.51 45.1712Z" fill="black"/>
<path d="M305.516 26.4579C304.668 26.4579 303.943 26.227 303.326 25.7651C302.71 25.3032 302.409 24.6643 302.409 23.8561C302.409 23.0478 302.718 22.4243 303.326 21.9701C303.935 21.516 304.668 21.2773 305.516 21.2773C306.363 21.2773 307.065 21.5083 307.682 21.9701C308.298 22.432 308.599 23.0632 308.599 23.8561C308.599 24.6489 308.291 25.3109 307.682 25.7651C307.073 26.2193 306.348 26.4579 305.516 26.4579ZM303.072 55.4628V31.4306H307.921V55.4628H303.072Z" fill="black"/>
<path d="M313.308 55.4626V31.4304H318.226V39.0973L316.908 38.5123C317.016 37.5347 317.263 36.5956 317.656 35.7103C318.049 34.8174 318.573 34.0245 319.228 33.324C319.884 32.6235 320.701 32.0693 321.664 31.6613C322.628 31.2534 323.745 31.0532 325.017 31.0532C325.981 31.0532 326.767 31.1302 327.361 31.2765C327.954 31.4304 328.324 31.5459 328.463 31.6382L327.422 36.2569C327.268 36.1491 326.967 36.0182 326.505 35.8489C326.042 35.6795 325.403 35.6026 324.593 35.6026C323.352 35.6026 322.327 35.8258 321.51 36.2569C320.693 36.6956 320.045 37.273 319.56 37.9965C319.074 38.7201 318.735 39.5053 318.527 40.3597C318.327 41.2142 318.219 42.0686 318.219 42.9308V55.4703H313.301L313.308 55.4626Z" fill="black"/>
<path d="M339.162 55.9399C337.351 55.9399 335.763 55.655 334.391 55.0777C333.026 54.5081 331.963 53.6844 331.207 52.6145C330.452 51.5445 330.074 50.2513 330.074 48.7425C330.074 47.126 330.498 45.7943 331.354 44.7397C332.209 43.6851 333.381 42.8692 334.884 42.2842C336.387 41.7068 338.098 41.3219 340.018 41.1449C342.87 40.8601 344.889 40.583 346.053 40.3058C347.225 40.0364 347.811 39.59 347.811 38.9741V38.928C347.811 37.704 347.287 36.7803 346.246 36.1414C345.205 35.5025 343.718 35.1946 341.783 35.1946C339.74 35.1946 338.168 35.5564 337.058 36.2723C335.948 36.9881 335.393 38.1274 335.393 39.6746H330.568C330.568 37.8349 331.045 36.2723 332.009 34.9944C332.965 33.7089 334.291 32.739 335.986 32.0616C337.682 31.3919 339.617 31.0532 341.806 31.0532C343.818 31.0532 345.645 31.3611 347.302 31.9692C348.959 32.5774 350.277 33.4857 351.256 34.6942C352.235 35.9028 352.729 37.4038 352.729 39.1974V50.6669C352.729 51.2212 352.752 51.7677 352.798 52.2835C352.844 52.7992 352.929 53.2688 353.045 53.6767C353.183 54.1463 353.345 54.5312 353.53 54.8314C353.723 55.1316 353.877 55.3471 353.993 55.4626H349.098C349.006 55.3702 348.875 55.1778 348.705 54.8853C348.528 54.5928 348.374 54.2464 348.242 53.8538C348.104 53.4766 348.004 53.0455 347.934 52.5529C347.865 52.0602 347.834 51.5291 347.834 50.9595L348.744 51.5907C348.289 52.4682 347.61 53.2303 346.693 53.8769C345.776 54.5235 344.681 55.0315 343.409 55.3933C342.13 55.7551 340.719 55.9399 339.162 55.9399ZM340.18 51.8678C341.583 51.8678 342.862 51.6445 344.018 51.1981C345.175 50.7516 346.1 50.0742 346.793 49.1582C347.487 48.2422 347.834 47.0952 347.834 45.7096V41.7299L348.99 43.2464C348.027 43.6235 346.84 43.9315 345.444 44.1624C344.049 44.3933 342.608 44.5858 341.128 44.7397C339.085 44.9245 337.559 45.2709 336.526 45.7943C335.501 46.3177 334.984 47.1799 334.984 48.3884C334.984 49.597 335.408 50.4206 336.264 51.0056C337.12 51.583 338.422 51.8755 340.172 51.8755L340.18 51.8678Z" fill="black"/>
<path d="M22.5779 48.8189C25.5366 48.8189 27.9351 46.4237 27.9351 43.469C27.9351 40.5144 25.5366 38.1191 22.5779 38.1191C19.6192 38.1191 17.2207 40.5144 17.2207 43.469C17.2207 46.4237 19.6192 48.8189 22.5779 48.8189Z" fill="black"/>
<path d="M42.6033 10.3919C40.6763 7.12036 37.9784 4.57243 34.5251 2.74038C31.0795 0.923723 27.0944 0 22.5697 0C18.0449 0 14.0598 0.916025 10.6065 2.74038C7.16094 4.57243 4.47077 7.12036 2.54371 10.3919C1.28727 12.5087 0.439369 14.8411 0 17.366H12.5798C12.7648 16.6424 13.0269 15.965 13.3352 15.3184C14.2062 13.5171 15.4319 12.1239 17.0275 11.154C18.6231 10.184 20.473 9.69139 22.5774 9.69139C24.6817 9.69139 26.5625 10.184 28.1427 11.154C29.7229 12.1239 30.9408 13.5171 31.8118 15.3184C32.1202 15.9573 32.3745 16.6424 32.5749 17.366H45.1548C44.7077 14.8334 43.8675 12.501 42.611 10.3919H42.6033Z" fill="black"/>
<path d="M47.3516 64.2753C45.9795 62.4278 45.1625 60.1493 45.147 57.6784V43.4684C45.147 31.0366 35.0184 20.9219 22.5697 20.9219C10.1209 20.9219 0 31.0366 0 43.4684C0 50.073 0.832488 54.5993 2.69788 58.1402C4.58639 61.7273 8.54071 66.0073 16.642 66.0073C22.4232 66.0073 29.9233 62.6203 34.5868 57.586C34.5868 60.0877 35.4039 62.4047 36.7913 64.2676H45.1393H47.3439L47.3516 64.2753ZM28.875 51.3047C25.1519 53.8295 20.3497 55.4691 16.642 55.4691C13.4817 55.4691 12.6106 54.3222 12.0402 53.2368C11.0459 51.3432 10.5603 48.1486 10.5603 43.4684C10.5603 36.8561 15.9483 31.4754 22.5697 31.4754C29.191 31.4754 34.5791 36.8561 34.5791 43.4684C34.5791 45.9471 32.4439 48.8722 28.8673 51.3047H28.875Z" fill="#FFB607"/>
</svg>
