<svg xmlns="http://www.w3.org/2000/svg" viewBox="0 0 315 55.75"><defs><style>.cls-1{fill:#ffb607;}</style></defs><g id="Camada_2" data-name="Camada 2"><g id="Camada_1-2" data-name="Camada 1"><path d="M41.73,6.43,38,11.53A27.77,27.77,0,0,0,21.92,6.31h0l-.33,0-.39,0h0A27.85,27.85,0,0,0,5.26,11.72l-3.7-5.1a34.18,34.18,0,0,1,40.17-.19Z"/><path d="M26.68,34.18a5.09,5.09,0,0,1-2.1,4.12,5.11,5.11,0,1,1,0-8.25A5.09,5.09,0,0,1,26.68,34.18Z"/><path class="cls-1" d="M34.26,16.72A21.58,21.58,0,0,0,8.89,51.63a21.63,21.63,0,0,0,19.23,3.11,21.15,21.15,0,0,0,6.14-3.11l2.26,3.11h6.64V34.18A21.55,21.55,0,0,0,34.26,16.72ZM29.42,45a13.36,13.36,0,1,1,5.49-10.79A13.28,13.28,0,0,1,29.42,45Z"/><path d="M167.34,13.25l-3-4a23.1,23.1,0,0,0-6.81,8.81,14.21,14.21,0,0,1,3.39,1.33A32.61,32.61,0,0,1,167.34,13.25Z"/><path d="M71,22.22a13,13,0,0,1,4.45.66,7.19,7.19,0,0,1,2.89,1.86,6.91,6.91,0,0,1,1.54,2.88,14.06,14.06,0,0,1,.46,3.73v14c-.82.17-2.06.39-3.72.63a38,38,0,0,1-5.62.38,16.57,16.57,0,0,1-3.79-.4,7.84,7.84,0,0,1-2.93-1.28,6,6,0,0,1-1.9-2.29,8,8,0,0,1-.68-3.48,6.77,6.77,0,0,1,.77-3.35,6.29,6.29,0,0,1,2.1-2.22,8.91,8.91,0,0,1,3.06-1.24,17.12,17.12,0,0,1,5.48-.26,18,18,0,0,1,2.08.37V31.3A7.19,7.19,0,0,0,75,29.54a3.7,3.7,0,0,0-.78-1.48,3.67,3.67,0,0,0-1.45-1,6.41,6.41,0,0,0-2.27-.35,20.85,20.85,0,0,0-3.39.26,15.53,15.53,0,0,0-2.51.62l-.67-4.32a21.16,21.16,0,0,1,3-.7A22.63,22.63,0,0,1,71,22.22Zm.44,19.88a19.58,19.58,0,0,0,3.75-.27v-5.9A10.41,10.41,0,0,0,74,35.66a13.09,13.09,0,0,0-1.85-.13,13.59,13.59,0,0,0-1.79.13,5.54,5.54,0,0,0-1.63.49,3,3,0,0,0-1.17,1,2.8,2.8,0,0,0-.44,1.61,2.82,2.82,0,0,0,1.19,2.62A6.12,6.12,0,0,0,71.48,42.1Z"/><path d="M85.8,23.55a35.92,35.92,0,0,1,9.48-1.24,12.61,12.61,0,0,1,4.71.77,7.43,7.43,0,0,1,3,2.16,8.28,8.28,0,0,1,1.59,3.35,18.65,18.65,0,0,1,.46,4.3v13H99.73V33.73a17.76,17.76,0,0,0-.24-3.16,5.67,5.67,0,0,0-.8-2.11,3.17,3.17,0,0,0-1.5-1.19,6.27,6.27,0,0,0-2.31-.38,17.24,17.24,0,0,0-2.11.14c-.74.09-1.28.16-1.64.22V45.84H85.8Z"/><path d="M130,45.14a31.57,31.57,0,0,1-4,.88,30.31,30.31,0,0,1-5,.4,13.41,13.41,0,0,1-4.89-.84,10.3,10.3,0,0,1-3.68-2.4A10.57,10.57,0,0,1,110,39.39a14.29,14.29,0,0,1-.82-5,16.7,16.7,0,0,1,.69-5,10.73,10.73,0,0,1,2-3.81,8.83,8.83,0,0,1,3.22-2.45,10.5,10.5,0,0,1,4.36-.86,9.75,9.75,0,0,1,3,.4,13.37,13.37,0,0,1,2.21.88V12.53l5.33-.88ZM114.67,34.25a8.37,8.37,0,0,0,1.67,5.53,5.7,5.7,0,0,0,4.63,2,19.13,19.13,0,0,0,2.18-.11,13.91,13.91,0,0,0,1.48-.24V28.22a8,8,0,0,0-1.88-.91,7.52,7.52,0,0,0-2.49-.42,4.78,4.78,0,0,0-4.25,2A9.4,9.4,0,0,0,114.67,34.25Z"/><path d="M148.78,27.6a17.12,17.12,0,0,0-1.83-.46,13.59,13.59,0,0,0-2.71-.25,10.55,10.55,0,0,0-1.88.18,10.92,10.92,0,0,0-1.38.31V45.84h-5.34V23.9a30.23,30.23,0,0,1,3.86-1.08,23.84,23.84,0,0,1,5.13-.51,11.71,11.71,0,0,1,1.24.07c.47,0,.94.1,1.41.17s.92.17,1.36.27a10.49,10.49,0,0,1,1.06.29Z"/><path d="M151,34.43a14.31,14.31,0,0,1,.91-5.33,11.08,11.08,0,0,1,2.4-3.81,9.91,9.91,0,0,1,3.44-2.3,10.69,10.69,0,0,1,4-.77,9.51,9.51,0,0,1,7.43,3c1.77,2,2.66,4.9,2.66,8.81,0,.29,0,.62,0,1s0,.7-.06,1H156.53a6.09,6.09,0,0,0,2,4.3,7.47,7.47,0,0,0,5,1.52,17,17,0,0,0,3.55-.35,15.58,15.58,0,0,0,2.53-.75l.7,4.36a7.61,7.61,0,0,1-1.21.46,14.56,14.56,0,0,1-1.76.44c-.66.14-1.37.25-2.14.34a22.27,22.27,0,0,1-2.33.13,14,14,0,0,1-5.29-.91,9.83,9.83,0,0,1-3.7-2.51,10.22,10.22,0,0,1-2.16-3.79A15.46,15.46,0,0,1,151,34.43Zm15.47-2.38a6.87,6.87,0,0,0-.31-2.09,4.86,4.86,0,0,0-.9-1.72,4.22,4.22,0,0,0-1.46-1.15,4.58,4.58,0,0,0-2-.42,4.71,4.71,0,0,0-2.16.47,5,5,0,0,0-1.57,1.21,5.53,5.53,0,0,0-1,1.72,8.54,8.54,0,0,0-.48,2Z"/><path d="M197.21,34.3a14.86,14.86,0,0,1-.8,5,11,11,0,0,1-2.24,3.83,10.11,10.11,0,0,1-3.51,2.47,11.24,11.24,0,0,1-4.51.88,11.12,11.12,0,0,1-4.5-.88,10.18,10.18,0,0,1-3.48-2.47,11.22,11.22,0,0,1-2.27-3.83,14.61,14.61,0,0,1-.82-5,14.45,14.45,0,0,1,.82-5,11.2,11.2,0,0,1,2.29-3.81,10.16,10.16,0,0,1,3.5-2.45,11.4,11.4,0,0,1,4.46-.86,11.52,11.52,0,0,1,4.47.86,10,10,0,0,1,3.5,2.45,11.32,11.32,0,0,1,2.27,3.81A14.45,14.45,0,0,1,197.21,34.3Zm-5.47,0a9,9,0,0,0-1.47-5.44,5.24,5.24,0,0,0-8.25,0,9,9,0,0,0-1.47,5.44A9.21,9.21,0,0,0,182,39.81a5.22,5.22,0,0,0,8.25,0A9.21,9.21,0,0,0,191.74,34.3Z"/><path d="M209.63,46.29a14.6,14.6,0,0,1-3.94-.53,6.21,6.21,0,0,1-2.49-1.39,4.87,4.87,0,0,1-1.3-2.25,11.4,11.4,0,0,1-.37-3.06V12.53l5.33-.88V38a7.48,7.48,0,0,0,.15,1.63,2.6,2.6,0,0,0,.55,1.13,2.51,2.51,0,0,0,1.08.7,8.13,8.13,0,0,0,1.74.38Z"/><path d="M219.55,16.05a3,3,0,0,1-1,2.38,3.3,3.3,0,0,1-2.29.89,3.37,3.37,0,0,1-2.34-.89,3.07,3.07,0,0,1-1-2.38,3.14,3.14,0,0,1,1-2.42,3.36,3.36,0,0,1,2.34-.88,3.29,3.29,0,0,1,2.29.88A3.11,3.11,0,0,1,219.55,16.05ZM219,45.84h-5.34v-23H219Z"/><path d="M230.6,45.84q-2.22-4.53-4.54-10.42a132.25,132.25,0,0,1-4.22-12.62h5.68c.33,1.29.71,2.68,1.13,4.16s.89,3,1.37,4.45,1,2.93,1.51,4.32,1,2.65,1.44,3.77c.44-1.12.91-2.37,1.41-3.77s1-2.83,1.49-4.32.95-3,1.39-4.45.82-2.87,1.15-4.16h5.51a132.22,132.22,0,0,1-4.23,12.62q-2.33,5.88-4.53,10.42Z"/><path d="M244.93,34.43a14.31,14.31,0,0,1,.91-5.33,11.08,11.08,0,0,1,2.4-3.81,10,10,0,0,1,3.43-2.3,10.78,10.78,0,0,1,4-.77,9.51,9.51,0,0,1,7.43,3c1.77,2,2.66,4.9,2.66,8.81,0,.29,0,.62,0,1s0,.7-.07,1h-15.2a6.09,6.09,0,0,0,2,4.3,7.47,7.47,0,0,0,5,1.52,16.85,16.85,0,0,0,3.54-.35,15.44,15.44,0,0,0,2.54-.75l.7,4.36a7.61,7.61,0,0,1-1.21.46,14.56,14.56,0,0,1-1.76.44c-.66.14-1.37.25-2.14.34a22.27,22.27,0,0,1-2.33.13,14,14,0,0,1-5.29-.91A9.83,9.83,0,0,1,247.8,43a10.22,10.22,0,0,1-2.16-3.79A15.46,15.46,0,0,1,244.93,34.43Zm15.47-2.38a6.87,6.87,0,0,0-.31-2.09,5,5,0,0,0-.9-1.72,4.22,4.22,0,0,0-1.46-1.15,4.6,4.6,0,0,0-2.05-.42,4.7,4.7,0,0,0-2.15.47A5,5,0,0,0,252,28.35a5.34,5.34,0,0,0-1,1.72,9.1,9.1,0,0,0-.49,2Z"/><path d="M276.22,16.05a3,3,0,0,1-1,2.38,3.3,3.3,0,0,1-2.29.89,3.37,3.37,0,0,1-2.34-.89,3.07,3.07,0,0,1-1-2.38,3.14,3.14,0,0,1,1-2.42,3.36,3.36,0,0,1,2.34-.88,3.29,3.29,0,0,1,2.29.88A3.11,3.11,0,0,1,276.22,16.05Zm-.57,29.79h-5.33v-23h5.33Z"/><path d="M294.46,27.6a16.25,16.25,0,0,0-1.82-.46,13.63,13.63,0,0,0-2.72-.25,10.53,10.53,0,0,0-1.87.18,11.66,11.66,0,0,0-1.39.31V45.84h-5.33V23.9a30.23,30.23,0,0,1,3.86-1.08,23.84,23.84,0,0,1,5.13-.51,12,12,0,0,1,1.24.07c.47,0,.93.1,1.41.17s.92.17,1.36.27.79.2,1.06.29Z"/><path d="M305.66,22.22a13.09,13.09,0,0,1,4.45.66A7.16,7.16,0,0,1,313,24.74a6.92,6.92,0,0,1,1.55,2.88,14.06,14.06,0,0,1,.46,3.73v14c-.82.17-2.06.39-3.72.63a38,38,0,0,1-5.62.38,16.51,16.51,0,0,1-3.79-.4,7.77,7.77,0,0,1-2.93-1.28,6,6,0,0,1-1.9-2.29,8,8,0,0,1-.68-3.48,6.77,6.77,0,0,1,.77-3.35,6.26,6.26,0,0,1,2.09-2.22,9,9,0,0,1,3.07-1.24,17.12,17.12,0,0,1,5.48-.26,17.47,17.47,0,0,1,2.07.37V31.3a6.74,6.74,0,0,0-.22-1.76,3.56,3.56,0,0,0-.77-1.48,3.74,3.74,0,0,0-1.45-1,6.41,6.41,0,0,0-2.27-.35,20.67,20.67,0,0,0-3.39.26,16,16,0,0,0-2.52.62l-.66-4.32a21.32,21.32,0,0,1,2.95-.7A22.82,22.82,0,0,1,305.66,22.22Zm.44,19.88a19.39,19.39,0,0,0,3.74-.27v-5.9a10.18,10.18,0,0,0-1.27-.27,13.13,13.13,0,0,0-1.86-.13,13.57,13.57,0,0,0-1.78.13,5.45,5.45,0,0,0-1.63.49,3,3,0,0,0-1.17,1,2.8,2.8,0,0,0-.44,1.61,2.82,2.82,0,0,0,1.19,2.62A6.09,6.09,0,0,0,306.1,42.1Z"/></g></g></svg>