<svg xmlns="http://www.w3.org/2000/svg" viewBox="0 0 464.54 65.24"><defs><style>.cls-1{fill:#101820;}.cls-2{fill:#ffb000;}.cls-3{fill:none;}</style></defs><g id="Camada_2" data-name="Camada 2"><g id="Camada_1-2" data-name="Camada 1"><path d="M96.26,18.29a20,20,0,0,1,6.79,1,10.85,10.85,0,0,1,4.41,2.83,10.56,10.56,0,0,1,2.35,4.4,21.6,21.6,0,0,1,.71,5.68V53.53q-1.89.4-5.68,1a58.37,58.37,0,0,1-8.58.57,25.91,25.91,0,0,1-5.78-.6A12.33,12.33,0,0,1,86,52.53a9.27,9.27,0,0,1-2.9-3.5,12.24,12.24,0,0,1-1-5.32,10.22,10.22,0,0,1,1.18-5.11,9.59,9.59,0,0,1,3.19-3.39,13.9,13.9,0,0,1,4.68-1.89,26.35,26.35,0,0,1,5.54-.57,25.53,25.53,0,0,1,6,.74V32.15a10.28,10.28,0,0,0-.34-2.69,5.33,5.33,0,0,0-3.39-3.77,9.61,9.61,0,0,0-3.47-.54,30.45,30.45,0,0,0-5.17.41,22.92,22.92,0,0,0-3.84.94l-1-6.59a32.07,32.07,0,0,1,4.51-1.08A35.18,35.18,0,0,1,96.26,18.29Zm.67,30.33a30.3,30.3,0,0,0,5.72-.4v-9a14.35,14.35,0,0,0-2-.4,17.42,17.42,0,0,0-2.82-.21,18.13,18.13,0,0,0-2.73.21,8.32,8.32,0,0,0-2.49.74,4.44,4.44,0,0,0-1.78,1.51,4.21,4.21,0,0,0-.67,2.45c0,1.93.6,3.26,1.81,4A9.4,9.4,0,0,0,96.93,48.62Z"/><path d="M118.45,20.31A55.64,55.64,0,0,1,124.57,19a53.31,53.31,0,0,1,8.34-.6,19.31,19.31,0,0,1,7.2,1.17,11.35,11.35,0,0,1,4.61,3.3A12.63,12.63,0,0,1,147.14,28a28.63,28.63,0,0,1,.7,6.56V54.34h-8.13V35.85a27.26,27.26,0,0,0-.37-4.81,8.62,8.62,0,0,0-1.21-3.23A4.91,4.91,0,0,0,135.84,26a9.67,9.67,0,0,0-3.53-.57,28.12,28.12,0,0,0-3.23.2c-1.12.14-2,.25-2.49.34V54.34h-8.14Z"/><path d="M185.51,53.26a46.79,46.79,0,0,1-6.09,1.35,47.58,47.58,0,0,1-7.7.61,20.6,20.6,0,0,1-7.47-1.28,15.54,15.54,0,0,1-5.61-3.67,16.12,16.12,0,0,1-3.57-5.78,22.08,22.08,0,0,1-1.24-7.63,25.9,25.9,0,0,1,1-7.57,16.82,16.82,0,0,1,3.06-5.82,13.66,13.66,0,0,1,4.91-3.73,16.06,16.06,0,0,1,6.66-1.31A15.44,15.44,0,0,1,174,19a20.92,20.92,0,0,1,3.36,1.35V3.5l8.14-1.35ZM162.17,36.65q0,5.39,2.55,8.44a8.72,8.72,0,0,0,7.07,3.06,28.74,28.74,0,0,0,3.33-.16c.91-.12,1.66-.24,2.25-.37V27.44a13,13,0,0,0-2.86-1.38,11.35,11.35,0,0,0-3.8-.64q-4.44,0-6.49,3A14.4,14.4,0,0,0,162.17,36.65Z"/><path d="M213.89,26.5a25.83,25.83,0,0,0-2.8-.71,20.89,20.89,0,0,0-4.13-.37,16.3,16.3,0,0,0-2.86.27,18.59,18.59,0,0,0-2.12.47V54.34h-8.14V20.85a45.71,45.71,0,0,1,5.89-1.65,37,37,0,0,1,7.83-.77c.54,0,1.17,0,1.89.1s1.43.16,2.15.27,1.41.24,2.08.4,1.21.3,1.62.44Z"/><path d="M217,36.92a22.14,22.14,0,0,1,1.38-8.14A17.07,17.07,0,0,1,222,23a15.31,15.31,0,0,1,5.25-3.5,16.32,16.32,0,0,1,6-1.18q7.26,0,11.33,4.51t4.07,13.45c0,.45,0,1,0,1.51s-.06,1.07-.1,1.52h-23.2a9.24,9.24,0,0,0,3,6.55q2.66,2.33,7.7,2.32a25.85,25.85,0,0,0,5.41-.53,21.69,21.69,0,0,0,3.87-1.15l1.08,6.66a14.31,14.31,0,0,1-1.85.71c-.79.24-1.68.47-2.69.67s-2.1.37-3.27.5a29.73,29.73,0,0,1-3.56.21A21.78,21.78,0,0,1,227,53.84,15,15,0,0,1,221.35,50a15.52,15.52,0,0,1-3.29-5.78A23.54,23.54,0,0,1,217,36.92Zm23.61-3.63a10.44,10.44,0,0,0-.48-3.19,7.74,7.74,0,0,0-1.37-2.63,6.66,6.66,0,0,0-2.22-1.75,7.19,7.19,0,0,0-3.13-.63,7.32,7.32,0,0,0-3.3.7,7.52,7.52,0,0,0-2.38,1.85,8.53,8.53,0,0,0-1.52,2.62,14.57,14.57,0,0,0-.74,3Zm1.34-28.51L231,15.4l-4-3.63L236.82,0Z"/><path d="M287.12,36.72a22.65,22.65,0,0,1-1.21,7.6,16.64,16.64,0,0,1-3.43,5.85,15.55,15.55,0,0,1-5.34,3.77,17.43,17.43,0,0,1-6.9,1.34,17.17,17.17,0,0,1-6.86-1.34,15.63,15.63,0,0,1-5.31-3.77,17.16,17.16,0,0,1-3.46-5.85,22.15,22.15,0,0,1-1.25-7.6,21.9,21.9,0,0,1,1.25-7.57,17,17,0,0,1,3.49-5.81,15.58,15.58,0,0,1,5.35-3.74,17.3,17.3,0,0,1,6.79-1.31,17.54,17.54,0,0,1,6.83,1.31,15.12,15.12,0,0,1,5.35,3.74,17.26,17.26,0,0,1,3.46,5.81A21.9,21.9,0,0,1,287.12,36.72Zm-8.33,0a13.77,13.77,0,0,0-2.26-8.31,8,8,0,0,0-12.57,0c-1.51,2.05-2.26,4.81-2.26,8.31s.75,6.35,2.26,8.41a7.94,7.94,0,0,0,12.57,0C278,43.07,278.79,40.26,278.79,36.72Z"/><path d="M305.75,55a22,22,0,0,1-6-.8,9.39,9.39,0,0,1-3.8-2.12,7.49,7.49,0,0,1-2-3.43,17.54,17.54,0,0,1-.57-4.68V3.5l8.14-1.35V42.44a11.11,11.11,0,0,0,.23,2.49,4,4,0,0,0,.84,1.71,3.84,3.84,0,0,0,1.65,1.08,13.64,13.64,0,0,0,2.66.57Z"/><path d="M320.55,8.88a4.66,4.66,0,0,1-1.48,3.63,5,5,0,0,1-3.5,1.34A5.07,5.07,0,0,1,312,12.51a4.66,4.66,0,0,1-1.48-3.63A4.74,4.74,0,0,1,312,5.18a5.08,5.08,0,0,1,3.56-1.35,5,5,0,0,1,3.5,1.35A4.74,4.74,0,0,1,320.55,8.88Zm-.88,45.46h-8.13V19.17h8.13Z"/><path d="M337.08,54.34q-3.39-6.93-6.93-15.9T323.7,19.17h8.68c.5,2,1.07,4.09,1.73,6.35s1.35,4.53,2.09,6.8,1.51,4.46,2.29,6.59,1.52,4,2.2,5.75c.67-1.71,1.4-3.62,2.16-5.75s1.52-4.33,2.26-6.59,1.45-4.53,2.13-6.8,1.26-4.38,1.76-6.35h8.4A201.29,201.29,0,0,1,351,38.44q-3.56,9-6.93,15.9Z"/><path d="M358.61,36.92A22.14,22.14,0,0,1,360,28.78,16.94,16.94,0,0,1,363.66,23a15.17,15.17,0,0,1,5.24-3.5A16.32,16.32,0,0,1,375,18.29c4.85,0,8.62,1.51,11.34,4.51s4.07,7.49,4.07,13.45c0,.45,0,1,0,1.51s-.05,1.07-.1,1.52H367a9.24,9.24,0,0,0,3,6.55q2.65,2.33,7.7,2.32a26,26,0,0,0,5.42-.53A21.8,21.8,0,0,0,387,46.47l1.08,6.66a14.31,14.31,0,0,1-1.85.71c-.79.24-1.68.47-2.69.67s-2.1.37-3.26.5a30,30,0,0,1-3.57.21,21.78,21.78,0,0,1-8.07-1.38A15.07,15.07,0,0,1,363,50a15.52,15.52,0,0,1-3.29-5.78A23.54,23.54,0,0,1,358.61,36.92Zm23.61-3.63a10.75,10.75,0,0,0-.47-3.19,7.94,7.94,0,0,0-1.38-2.63,6.66,6.66,0,0,0-2.22-1.75,7.19,7.19,0,0,0-3.13-.63,7.28,7.28,0,0,0-3.29.7,7.56,7.56,0,0,0-2.39,1.85,8.31,8.31,0,0,0-1.51,2.62,14,14,0,0,0-.74,3Z"/><path d="M406,8.88a4.7,4.7,0,0,1-1.48,3.63,5,5,0,0,1-3.5,1.34,5.11,5.11,0,0,1-3.57-1.34A4.69,4.69,0,0,1,396,8.88a4.77,4.77,0,0,1,1.47-3.7,5.12,5.12,0,0,1,3.57-1.35,5,5,0,0,1,3.5,1.35A4.78,4.78,0,0,1,406,8.88Zm-.88,45.46H397V19.17h8.14Z"/><path d="M433.53,26.5a25,25,0,0,0-2.79-.71,21.07,21.07,0,0,0-4.14-.37,16.2,16.2,0,0,0-2.85.27,18.08,18.08,0,0,0-2.12.47V54.34h-8.14V20.85a46,46,0,0,1,5.88-1.65,37.15,37.15,0,0,1,7.84-.77c.54,0,1.16,0,1.88.1s1.44.16,2.15.27,1.42.24,2.09.4,1.21.3,1.61.44Z"/><path d="M450.28,18.29a20,20,0,0,1,6.79,1,10.85,10.85,0,0,1,4.41,2.83,10.68,10.68,0,0,1,2.35,4.4,21.6,21.6,0,0,1,.71,5.68V53.53c-1.26.27-3.15.6-5.69,1a58.14,58.14,0,0,1-8.57.57,26,26,0,0,1-5.79-.6A12.41,12.41,0,0,1,440,52.53a9.25,9.25,0,0,1-2.89-3.5,12.1,12.1,0,0,1-1-5.32,10.32,10.32,0,0,1,1.17-5.11,9.62,9.62,0,0,1,3.2-3.39,13.85,13.85,0,0,1,4.67-1.89,26.38,26.38,0,0,1,5.55-.57,25.53,25.53,0,0,1,6,.74V32.15a10.72,10.72,0,0,0-.34-2.69,5.57,5.57,0,0,0-1.18-2.26,5.51,5.51,0,0,0-2.22-1.51,9.56,9.56,0,0,0-3.46-.54,30.65,30.65,0,0,0-5.18.41,22.53,22.53,0,0,0-3.83.94l-1-6.59A31.72,31.72,0,0,1,444,18.83,35.1,35.1,0,0,1,450.28,18.29ZM451,48.62a30.3,30.3,0,0,0,5.72-.4v-9a14.35,14.35,0,0,0-1.95-.4,17.63,17.63,0,0,0-2.83-.21,18,18,0,0,0-2.72.21,8.32,8.32,0,0,0-2.49.74,4.37,4.37,0,0,0-1.78,1.51,4.21,4.21,0,0,0-.68,2.45c0,1.93.61,3.26,1.82,4A9.37,9.37,0,0,0,451,48.62Z"/><circle class="cls-1" cx="32.19" cy="39.32" r="6.17"/><path class="cls-2" d="M58.32,39.11c0-.08,0-.15,0-.23A26.52,26.52,0,0,0,32.42,13,26.13,26.13,0,0,0,6.06,39.33,26.51,26.51,0,0,0,32,65.24a26,26,0,0,0,16.39-5.59v0c3.12-.39,4.19,3.13,5.41,5.42h4.57v-26ZM32.19,55.26A16.16,16.16,0,1,1,48.35,39.11,16.15,16.15,0,0,1,32.19,55.26Z"/><polygon class="cls-2" points="58.57 65.08 52.68 65.08 48.35 59.65 58.33 59.65 58.57 65.08"/><rect class="cls-3" y="0.61" width="64.63" height="64.63"/><path class="cls-1" d="M32.31,7A32.21,32.21,0,0,1,55.1,16.41l4.52-4.52A38.58,38.58,0,0,0,32.31.61h-.12V7Z"/><path class="cls-1" d="M32.19,7V.62A38.56,38.56,0,0,0,4.89,12L9.4,16.53A32.25,32.25,0,0,1,32.19,7Z"/></g></g></svg>