<svg xmlns="http://www.w3.org/2000/svg" viewBox="0 0 350 50.02"><defs><style>.cls-1{fill:#ffb000;}</style></defs><g id="Camada_2" data-name="Camada 2"><g id="Camada_1-2" data-name="Camada 1"><path d="M37.45,5.77l-3.33,4.58A24.82,24.82,0,0,0,19.66,5.66h0l-.3,0-.35,0h0A24.89,24.89,0,0,0,4.72,10.52L1.4,5.94a30.67,30.67,0,0,1,36.05-.17Z"/><path d="M23.94,30.66A4.59,4.59,0,1,1,22.05,27,4.57,4.57,0,0,1,23.94,30.66Z"/><path class="cls-1" d="M30.74,15A19.36,19.36,0,0,0,8,46.33a19.59,19.59,0,0,0,5.51,2.79,19.59,19.59,0,0,0,11.74,0,19.59,19.59,0,0,0,5.51-2.79l2,2.79h5.95V30.66A19.32,19.32,0,0,0,30.74,15ZM26.39,40.34a12,12,0,1,1,4.94-9.68A11.87,11.87,0,0,1,26.39,40.34Z"/><path d="M179.54,4.58,176.06,0a26.83,26.83,0,0,0-7.86,10.17,15.59,15.59,0,0,1,3.91,1.54A37.91,37.91,0,0,1,179.54,4.58Z"/><path d="M68.37,14.94a15,15,0,0,1,5.14.76,8.17,8.17,0,0,1,3.33,2.14,8,8,0,0,1,1.78,3.33,16.17,16.17,0,0,1,.54,4.3V41.6c-1,.2-2.39.45-4.3.74a45.16,45.16,0,0,1-6.49.43A19.16,19.16,0,0,1,64,42.31a9.29,9.29,0,0,1-3.39-1.48,6.88,6.88,0,0,1-2.18-2.64,9.15,9.15,0,0,1-.79-4,7.72,7.72,0,0,1,.89-3.87,7.41,7.41,0,0,1,2.41-2.57,10.56,10.56,0,0,1,3.54-1.42,19.81,19.81,0,0,1,4.2-.43,17.74,17.74,0,0,1,2.13.13,17.55,17.55,0,0,1,2.39.43v-1a7.9,7.9,0,0,0-.25-2,4.25,4.25,0,0,0-.89-1.71,4.11,4.11,0,0,0-1.68-1.14,7.31,7.31,0,0,0-2.62-.41,23.75,23.75,0,0,0-3.92.3,18.23,18.23,0,0,0-2.9.72l-.76-5a24.44,24.44,0,0,1,3.41-.81A26.85,26.85,0,0,1,68.37,14.94Zm.51,22.94a23.21,23.21,0,0,0,4.32-.3V30.76a12.25,12.25,0,0,0-1.47-.3,12.86,12.86,0,0,0-2.14-.16,13.18,13.18,0,0,0-2.06.16,6.44,6.44,0,0,0-1.88.56,3.41,3.41,0,0,0-1.35,1.14A3.19,3.19,0,0,0,63.79,34a3.24,3.24,0,0,0,1.38,3A7.05,7.05,0,0,0,68.88,37.88Z"/><path d="M85.41,16.47a42.16,42.16,0,0,1,4.63-1A39.34,39.34,0,0,1,96.35,15a14.53,14.53,0,0,1,5.44.89,8.59,8.59,0,0,1,3.49,2.5,9.55,9.55,0,0,1,1.83,3.86,21.36,21.36,0,0,1,.54,5v15h-6.16v-14a19.87,19.87,0,0,0-.28-3.64,6.41,6.41,0,0,0-.92-2.44,3.56,3.56,0,0,0-1.73-1.37,7.24,7.24,0,0,0-2.67-.44,19,19,0,0,0-2.44.16c-.85.1-1.47.18-1.88.25V42.21H85.41Z"/><path d="M136.39,41.39a34.42,34.42,0,0,1-4.61,1,35.11,35.11,0,0,1-5.82.46,15.43,15.43,0,0,1-5.65-1,11.65,11.65,0,0,1-4.25-2.77,12.2,12.2,0,0,1-2.69-4.37,16.69,16.69,0,0,1-.94-5.78,19.29,19.29,0,0,1,.79-5.72,12.39,12.39,0,0,1,2.31-4.4A10.53,10.53,0,0,1,119.24,16a12.12,12.12,0,0,1,5-1,11.35,11.35,0,0,1,3.41.46,16,16,0,0,1,2.54,1V3.75l6.16-1ZM118.74,28.83a9.64,9.64,0,0,0,1.93,6.38A6.57,6.57,0,0,0,126,37.53a20.23,20.23,0,0,0,2.52-.13,16.22,16.22,0,0,0,1.7-.28V21.86a9.47,9.47,0,0,0-2.16-1,8.28,8.28,0,0,0-2.87-.49,5.52,5.52,0,0,0-4.91,2.29A10.9,10.9,0,0,0,118.74,28.83Z"/><path d="M158.11,21.15a20.11,20.11,0,0,0-2.11-.54,16,16,0,0,0-3.13-.28,16.09,16.09,0,0,0-3.76.56V42.21H143V16.87a34.2,34.2,0,0,1,4.45-1.24,27.77,27.77,0,0,1,5.93-.59c.4,0,.88,0,1.42.08s1.09.12,1.63.2,1.07.19,1.58.31.91.23,1.22.33Z"/><path d="M160.7,29a16.57,16.57,0,0,1,1.05-6.15,12.83,12.83,0,0,1,2.77-4.4,11.44,11.44,0,0,1,4-2.65,12.36,12.36,0,0,1,4.58-.89q5.49,0,8.57,3.41t3.08,10.17c0,.34,0,.72,0,1.15s0,.8-.08,1.14H167.06a7,7,0,0,0,2.27,5,8.6,8.6,0,0,0,5.82,1.76,19.3,19.3,0,0,0,4.1-.41,17.36,17.36,0,0,0,2.92-.86l.82,5a10.39,10.39,0,0,1-1.4.54c-.6.18-1.27.35-2,.51s-1.58.28-2.46.38a24.16,24.16,0,0,1-2.7.15,16.45,16.45,0,0,1-6.11-1,11.39,11.39,0,0,1-4.27-2.9,11.86,11.86,0,0,1-2.49-4.38A18,18,0,0,1,160.7,29Zm17.86-2.75a8,8,0,0,0-.36-2.41,5.72,5.72,0,0,0-1-2,4.93,4.93,0,0,0-1.68-1.32,5.37,5.37,0,0,0-2.36-.48,5.64,5.64,0,0,0-2.5.53,5.82,5.82,0,0,0-1.8,1.4,6.44,6.44,0,0,0-1.15,2,11.33,11.33,0,0,0-.56,2.28Z"/><path d="M214,28.88a17.21,17.21,0,0,1-.92,5.75,12.66,12.66,0,0,1-2.59,4.42,11.45,11.45,0,0,1-4,2.85,13,13,0,0,1-5.21,1,12.85,12.85,0,0,1-5.19-1,11.51,11.51,0,0,1-4-2.85,13,13,0,0,1-2.62-4.42,16.71,16.71,0,0,1-.94-5.75,16.46,16.46,0,0,1,.94-5.72,12.78,12.78,0,0,1,2.65-4.4,11.5,11.5,0,0,1,4-2.83,13,13,0,0,1,5.14-1,13.18,13.18,0,0,1,5.16,1,11.27,11.27,0,0,1,4.05,2.83,13,13,0,0,1,2.62,4.4A16.7,16.7,0,0,1,214,28.88Zm-6.31,0A10.4,10.4,0,0,0,206,22.6a6,6,0,0,0-9.52,0,10.4,10.4,0,0,0-1.7,6.28,10.64,10.64,0,0,0,1.7,6.36,6,6,0,0,0,9.52,0A10.64,10.64,0,0,0,207.71,28.88Z"/><path d="M228.37,42.72a17.11,17.11,0,0,1-4.56-.61,7,7,0,0,1-2.87-1.61,5.69,5.69,0,0,1-1.5-2.59,13.08,13.08,0,0,1-.44-3.54V3.75l6.16-1V33.2a8.41,8.41,0,0,0,.18,1.89,3.06,3.06,0,0,0,.63,1.29,2.88,2.88,0,0,0,1.25.82,10.23,10.23,0,0,0,2,.43Z"/><path d="M239.81,7.82a3.53,3.53,0,0,1-1.12,2.75,3.82,3.82,0,0,1-2.64,1,3.9,3.9,0,0,1-2.7-1,3.53,3.53,0,0,1-1.12-2.75A3.58,3.58,0,0,1,233.35,5a3.86,3.86,0,0,1,2.7-1,3.79,3.79,0,0,1,2.64,1A3.58,3.58,0,0,1,239.81,7.82Zm-.66,34.39H233V15.6h6.16Z"/><path d="M252.57,42.21c-1.7-3.49-3.45-7.51-5.24-12a153.62,153.62,0,0,1-4.88-14.58H249c.37,1.49.81,3.1,1.3,4.81s1,3.42,1.58,5.14,1.14,3.37,1.74,5,1.15,3.06,1.66,4.35c.51-1.29,1.06-2.74,1.64-4.35s1.15-3.27,1.71-5,1.09-3.43,1.61-5.14.95-3.32,1.32-4.81H268q-2.2,7.78-4.88,14.58c-1.79,4.52-3.54,8.54-5.24,12Z"/><path d="M269.11,29a16.57,16.57,0,0,1,1.05-6.15,12.68,12.68,0,0,1,2.77-4.4,11.35,11.35,0,0,1,4-2.65,12.32,12.32,0,0,1,4.58-.89q5.49,0,8.57,3.41t3.08,10.17c0,.34,0,.72,0,1.15s0,.8-.08,1.14H275.47a7,7,0,0,0,2.27,5,8.6,8.6,0,0,0,5.82,1.76,19.3,19.3,0,0,0,4.1-.41,17.36,17.36,0,0,0,2.92-.86l.82,5a10.39,10.39,0,0,1-1.4.54q-.9.27-2,.51c-.76.15-1.58.28-2.47.38a23.85,23.85,0,0,1-2.69.15,16.45,16.45,0,0,1-6.11-1,11.39,11.39,0,0,1-4.27-2.9,11.86,11.86,0,0,1-2.49-4.38A17.66,17.66,0,0,1,269.11,29ZM287,26.28a8,8,0,0,0-.36-2.41,5.72,5.72,0,0,0-1-2,4.93,4.93,0,0,0-1.68-1.32,5.37,5.37,0,0,0-2.36-.48,5.64,5.64,0,0,0-2.5.53,5.82,5.82,0,0,0-1.8,1.4,6.44,6.44,0,0,0-1.15,2,11.33,11.33,0,0,0-.56,2.28Z"/><path d="M305.23,7.82a3.53,3.53,0,0,1-1.12,2.75,3.81,3.81,0,0,1-2.64,1,3.92,3.92,0,0,1-2.7-1,3.56,3.56,0,0,1-1.12-2.75A3.62,3.62,0,0,1,298.77,5a3.88,3.88,0,0,1,2.7-1,3.77,3.77,0,0,1,2.64,1A3.58,3.58,0,0,1,305.23,7.82Zm-.66,34.39h-6.15V15.6h6.15Z"/><path d="M326.29,21.15a20.11,20.11,0,0,0-2.11-.54,16,16,0,0,0-3.13-.28,11.94,11.94,0,0,0-2.16.21,12.41,12.41,0,0,0-1.6.35V42.21h-6.16V16.87a34.2,34.2,0,0,1,4.45-1.24,27.84,27.84,0,0,1,5.93-.59c.41,0,.88,0,1.43.08s1.08.12,1.62.2,1.07.19,1.58.31.92.23,1.22.33Z"/><path d="M339.21,14.94a15,15,0,0,1,5.14.76,8.27,8.27,0,0,1,3.34,2.14,8.11,8.11,0,0,1,1.78,3.33,16.6,16.6,0,0,1,.53,4.3V41.6c-.95.2-2.38.45-4.3.74a45.16,45.16,0,0,1-6.49.43,19.16,19.16,0,0,1-4.37-.46,9.24,9.24,0,0,1-3.38-1.48,6.81,6.81,0,0,1-2.19-2.64,9.15,9.15,0,0,1-.79-4,7.83,7.83,0,0,1,.89-3.87,7.35,7.35,0,0,1,2.42-2.57,10.51,10.51,0,0,1,3.53-1.42,19.81,19.81,0,0,1,4.2-.43,17.9,17.9,0,0,1,2.14.13,18.11,18.11,0,0,1,2.39.43v-1a7.9,7.9,0,0,0-.26-2,4,4,0,0,0-2.57-2.85,7.24,7.24,0,0,0-2.62-.41,23.54,23.54,0,0,0-3.91.3,17.69,17.69,0,0,0-2.9.72l-.77-5a24.44,24.44,0,0,1,3.41-.81A26.85,26.85,0,0,1,339.21,14.94Zm.51,22.94a23.41,23.41,0,0,0,4.33-.3V30.76a12.07,12.07,0,0,0-1.48-.3,12.65,12.65,0,0,0-2.13-.16,13.09,13.09,0,0,0-2.06.16,6.42,6.42,0,0,0-1.89.56,3.32,3.32,0,0,0-1.34,1.14,3.19,3.19,0,0,0-.51,1.86A3.23,3.23,0,0,0,336,37,7.08,7.08,0,0,0,339.72,37.88Z"/></g></g></svg>