<svg width="225" height="163" viewBox="0 0 225 163" fill="none" xmlns="http://www.w3.org/2000/svg">
<mask id="mask0" mask-type="alpha" maskUnits="userSpaceOnUse" x="0" y="0" width="225" height="163">
<rect x="0.464355" width="224.465" height="163" fill="#C4C4C4"/>
</mask>
<g mask="url(#mask0)">
<path d="M186.965 124.421H186.633C180.351 124.421 174.326 121.919 169.884 117.466C165.442 113.012 162.947 106.972 162.947 100.674C162.947 100.561 162.947 100.454 162.947 100.341C162.769 79.7931 145.43 62.4037 124.929 62.2256H124.598C118.316 62.2256 112.291 59.7236 107.849 55.27C103.407 50.8164 100.911 44.776 100.911 38.4776V38.4776V38.1392C100.722 17.5616 83.377 0.172173 62.882 0L62.2129 0C41.7179 0.172173 24.3733 17.5616 24.2016 38.1095V38.4479C24.2016 44.7463 21.706 50.7867 17.2639 55.2403C12.8218 59.6939 6.79694 62.1959 0.514823 62.1959C-9.65435 62.1959 -19.407 66.246 -26.5977 73.4553C-33.7884 80.6646 -37.8281 90.4424 -37.8281 100.638C-37.8281 106.936 -40.3237 112.977 -44.7658 117.43C-49.2079 121.884 -55.2327 124.386 -61.5148 124.386C-67.797 124.386 -73.8218 121.884 -78.2639 117.43C-82.706 112.977 -85.2016 106.936 -85.2016 100.638V100.335C-85.3792 79.7812 -102.718 62.3977 -123.219 62.2196H-123.924C-144.418 62.3977 -161.763 79.7812 -161.941 100.335C-161.941 100.442 -161.941 100.555 -161.941 100.668C-161.941 103.786 -162.553 106.874 -163.744 109.756C-164.934 112.637 -166.679 115.255 -168.878 117.46C-171.078 119.665 -173.689 121.414 -176.563 122.608C-179.437 123.801 -182.517 124.416 -185.627 124.416V124.416C-185.74 124.416 -185.852 124.416 -185.965 124.416C-206.484 124.6 -223.828 141.989 -224 162.537V162.869H-209.356C-209.356 156.571 -206.86 150.531 -202.418 146.077C-197.976 141.623 -191.951 139.121 -185.669 139.121H-185.337C-164.842 138.943 -147.498 121.56 -147.326 101.006C-147.326 100.893 -147.326 100.786 -147.326 100.674C-147.326 94.3704 -144.829 88.3255 -140.383 83.8686C-135.938 79.4116 -129.908 76.9077 -123.621 76.9077C-117.335 76.9077 -111.305 79.4116 -106.86 83.8686C-102.414 88.3255 -99.917 94.3704 -99.917 100.674V100.674V101C-99.7393 121.554 -82.4006 138.937 -61.8998 139.116H-61.5682C-51.399 139.116 -41.6463 135.065 -34.4556 127.856C-27.2649 120.647 -23.2252 110.869 -23.2252 100.674C-23.2252 94.3752 -20.7297 88.3348 -16.2875 83.8812C-11.8454 79.4276 -5.8206 76.9256 0.461512 76.9256C5.49727 76.9263 10.4839 75.9326 15.1365 74.001C19.7892 72.0695 24.0168 69.238 27.5779 65.6683C31.139 62.0985 33.9638 57.8604 35.8911 53.196C37.8184 48.5317 38.8104 43.5323 38.8104 38.4836V38.4836C38.8104 32.1805 41.3078 26.1356 45.7532 21.6786C50.1987 17.2217 56.228 14.7178 62.5149 14.7178C68.8017 14.7178 74.831 17.2217 79.2765 21.6786C83.722 26.1356 86.2194 32.1805 86.2194 38.4836V38.4836V38.816C86.397 59.3639 103.736 76.7534 124.237 76.9256C124.343 76.9256 124.456 76.9256 124.568 76.9256C130.85 76.9256 136.875 79.4276 141.317 83.8812C145.759 88.3348 148.255 94.3752 148.255 100.674V101.006C148.433 121.56 165.771 138.943 186.272 139.121H186.604C192.886 139.121 198.911 141.623 203.353 146.077C207.795 150.531 210.291 156.571 210.291 162.869H224.929C224.929 162.757 224.929 162.644 224.929 162.531C224.822 141.983 207.484 124.594 186.965 124.421Z" fill="#FFB000"/>
<path d="M124.598 91.5722V100.656H133.67C133.67 99.4619 133.435 98.2797 132.979 97.1768C132.523 96.074 131.855 95.0721 131.012 94.2285C130.169 93.3848 129.169 92.716 128.069 92.2602C126.968 91.8044 125.789 91.5706 124.598 91.5722V91.5722Z" fill="black"/>
<path d="M186.651 100.656H177.591C177.591 103.065 178.546 105.375 180.245 107.079C181.944 108.782 184.248 109.739 186.651 109.739V100.656Z" fill="black"/>
<path d="M62.5504 29.3644C61.3606 29.3644 60.1825 29.5993 59.0832 30.0558C57.984 30.5123 56.9852 31.1814 56.1439 32.0249C55.3026 32.8684 54.6352 33.8698 54.1799 34.9718C53.7246 36.0739 53.4902 37.2551 53.4902 38.448H71.6106C71.6106 36.0389 70.656 33.7284 68.9569 32.0249C67.2578 30.3214 64.9533 29.3644 62.5504 29.3644V29.3644Z" fill="black"/>
<path d="M124.598 47.5315V38.4479H115.538C115.538 40.857 116.492 43.1674 118.191 44.8709C119.89 46.5745 122.195 47.5315 124.598 47.5315V47.5315Z" fill="black"/>
<path d="M0.49707 47.5315C2.89998 47.5315 5.20448 46.5745 6.90359 44.8709C8.6027 43.1674 9.55725 40.857 9.55725 38.4479H0.49707L0.49707 47.5315Z" fill="black"/>
<path d="M186.651 153.768V162.852H195.711C195.711 160.442 194.757 158.132 193.058 156.428C191.359 154.725 189.054 153.768 186.651 153.768V153.768Z" fill="black"/>
</g>
</svg>
