<svg xmlns="http://www.w3.org/2000/svg" viewBox="0 0 759.56 274.58"><defs><style>.cls-1{fill:#ffb000;}</style></defs><g id="Camada_2" data-name="Camada 2"><g id="Camada_1-2" data-name="Camada 1"><path class="cls-1" d="M339.18,169.33H314.45a40,40,0,0,1-40,40v24.73A64.75,64.75,0,0,0,339.18,169.33Z"/><path class="cls-1" d="M209.56,169.33h24.73v-.56c-.3-34.61-29.58-63.9-64.19-64.2h-.57V129.3A40,40,0,0,1,209.56,169.33Z"/><path class="cls-1" d="M234.29,169.32H209.56v.56c.3,34.62,29.58,63.9,64.2,64.2h.56V209.35A40,40,0,0,1,234.29,169.32Z"/><path d="M274.42,184.63a15.3,15.3,0,0,0,15.3-15.3h-15.3Z"/><path class="cls-1" d="M444.55,64.76H419.83a40,40,0,0,1-40,40v24.72A64.75,64.75,0,0,0,444.55,64.76Z"/><path d="M379.8,80.06a15.3,15.3,0,0,0,15.3-15.3H379.8Z"/><path d="M259,169.32a15.3,15.3,0,0,0,15.3,15.3v-15.3Z"/><path d="M184.83,169.33a15.3,15.3,0,0,0-15.3-15.3v15.3Z"/><path class="cls-1" d="M524.83,64.76h24.72c0-.19,0-.38,0-.57C549.26,29.58,520,.29,485.36,0h-.56V24.73A40,40,0,0,1,524.83,64.76Z"/><path d="M500.1,64.76a15.3,15.3,0,0,0-15.3-15.3v15.3Z"/><path class="cls-1" d="M484.8,24.73V0h-.56c-34.62.29-63.9,29.58-64.2,64.19v.57h24.73A40,40,0,0,1,484.8,24.73Z"/><path d="M484.8,49.46a15.3,15.3,0,0,0-15.3,15.3h15.3Z"/><path class="cls-1" d="M379.8,129.73V105A64.76,64.76,0,0,0,315,169.76h24.73A40,40,0,0,1,379.8,129.73Z"/><path d="M364.5,169.76h15.3v-15.3A15.3,15.3,0,0,0,364.5,169.76Z"/><path class="cls-1" d="M549.77,64.76H525v.56c.3,34.61,29.58,63.9,64.2,64.19.18,0,.37,0,.56,0V104.79A40,40,0,0,1,549.77,64.76Z"/><path d="M574.5,64.76a15.3,15.3,0,0,0,15.3,15.3V64.76Z"/><path class="cls-1" d="M629.83,169.76h24.72c0-.19,0-.38,0-.57-.3-34.61-29.58-63.9-64.2-64.19h-.56v24.73A40,40,0,0,1,629.83,169.76Z"/><path d="M605.1,169.76a15.3,15.3,0,0,0-15.3-15.3v15.3Z"/><path class="cls-1" d="M654.77,169.76H630v.56c.3,34.61,29.58,63.9,64.2,64.19.18,0,.37,0,.56,0V209.79A40,40,0,0,1,654.77,169.76Z"/><path d="M679.5,169.76a15.3,15.3,0,0,0,15.3,15.3v-15.3Z"/><path class="cls-1" d="M169.53,129.3V104.58H169c-34.61.3-63.9,29.59-64.2,64.2,0,.19,0,.37,0,.56H129.5A40,40,0,0,1,169.53,129.3Z"/><path d="M169.53,154a15.3,15.3,0,0,0-15.3,15.3h15.3Z"/><path class="cls-1" d="M64.53,209.36v24.73h.57c34.61-.3,63.89-29.58,64.19-64.19v-.57H104.56A40,40,0,0,1,64.53,209.36Z"/><path d="M64.53,184.63a15.3,15.3,0,0,0,15.3-15.3H64.53Z"/><path class="cls-1" d="M64.76,234.41V209.69h-.57C29.58,210,.29,239.27,0,273.88v.56H24.73A40,40,0,0,1,64.76,234.41Z"/><path d="M64.53,259a15.3,15.3,0,0,0-15.3,15.3h15.3Z"/><path class="cls-1" d="M734.83,274.58h24.72c0-.19,0-.38,0-.56-.3-34.62-29.58-63.9-64.2-64.2h-.56v24.73A40,40,0,0,1,734.83,274.58Z"/><path d="M710.1,274.58a15.3,15.3,0,0,0-15.3-15.3v15.3Z"/></g></g></svg>