<svg xmlns="http://www.w3.org/2000/svg" viewBox="0 0 758.23 274.55"><defs><style>.cls-1{fill:#ffb000;}</style></defs><g id="Camada_2" data-name="Camada 2"><g id="Camada_1-2" data-name="Camada 1"><path class="cls-1" d="M694,209.57h-.56a40,40,0,0,1-40-40h0c0-.19,0-.37,0-.56-.3-34.61-29.58-63.9-64.2-64.2h-.56a40,40,0,0,1-40-40h0v-.57C548.36,29.58,519.07.29,484.46,0h-1.13c-34.61.29-63.9,29.58-64.19,64.19v.57h0a40,40,0,0,1-40,40,64.75,64.75,0,0,0-64.75,64.75h0a40,40,0,0,1-40,40h0a40,40,0,0,1-40-40h0V169c-.3-34.62-29.58-63.9-64.2-64.2H169c-34.61.3-63.9,29.58-64.2,64.2,0,.18,0,.37,0,.56h0a40,40,0,0,1-40,40h0c-.19,0-.38,0-.57,0C29.58,209.87.29,239.16,0,273.77v.56H24.73a40,40,0,0,1,40-40h.56c34.61-.3,63.9-29.58,64.19-64.2,0-.19,0-.37,0-.56h0a40,40,0,0,1,80.06,0h0v.55c.3,34.62,29.58,63.9,64.2,64.2h.56a64.75,64.75,0,0,0,64.75-64.75h0a40,40,0,0,1,40-40h0a64.75,64.75,0,0,0,64.76-64.75h0a40,40,0,1,1,80.06,0h0v.56c.3,34.61,29.58,63.9,64.2,64.19.18,0,.37,0,.56,0h0a40,40,0,0,1,40,40h0v.56c.3,34.62,29.58,63.9,64.2,64.2h.56a40,40,0,0,1,40,40h24.72c0-.19,0-.38,0-.57C757.93,239.15,728.65,209.86,694,209.57Z"/><path d="M363.17,169.29h15.3V154A15.3,15.3,0,0,0,363.17,169.29Z"/><path d="M588.68,154.24v15.3H604A15.3,15.3,0,0,0,588.68,154.24Z"/><path d="M693.47,169.54h-15.3a15.3,15.3,0,0,0,15.3,15.3Z"/><path d="M483.9,49.46a15.3,15.3,0,0,0-15.3,15.3h30.6A15.3,15.3,0,0,0,483.9,49.46Z"/><path d="M588.68,80.06V64.76h-15.3A15.3,15.3,0,0,0,588.68,80.06Z"/><path d="M379.11,80.06a15.3,15.3,0,0,0,15.3-15.3h-15.3Z"/><path d="M274.33,169.54H259a15.3,15.3,0,0,0,15.3,15.3h0a15.3,15.3,0,0,0,15.3-15.3Z"/><path d="M169.54,154.25a15.3,15.3,0,0,0-15.3,15.3h30.6A15.3,15.3,0,0,0,169.54,154.25Z"/><path d="M64.76,184.85a15.3,15.3,0,0,0,15.3-15.3H64.76Z"/><path d="M49.24,274.55h15.3v-15.3A15.3,15.3,0,0,0,49.24,274.55Z"/><path d="M693.47,259v15.3h15.3A15.3,15.3,0,0,0,693.47,259Z"/></g></g></svg>