<svg width="224" height="163" viewBox="0 0 224 163" fill="none" xmlns="http://www.w3.org/2000/svg">
<mask id="mask0" mask-type="alpha" maskUnits="userSpaceOnUse" x="0" y="0" width="225" height="163">
<rect width="224.461" height="163" fill="#C4C4C4"/>
</mask>
<g mask="url(#mask0)">
<path d="M410.965 124.421H410.633C404.351 124.421 398.326 121.919 393.884 117.466C389.442 113.012 386.947 106.972 386.947 100.674C386.947 100.561 386.947 100.454 386.947 100.341C386.769 79.7931 369.43 62.4037 348.929 62.2256H348.598C342.316 62.2256 336.291 59.7236 331.849 55.27C327.407 50.8164 324.911 44.776 324.911 38.4776V38.4776V38.1392C324.722 17.5616 307.377 0.172173 286.882 0L286.213 0C265.718 0.172173 248.373 17.5616 248.202 38.1095V38.4479C248.202 44.7463 245.706 50.7867 241.264 55.2403C236.822 59.6939 230.797 62.1959 224.515 62.1959C214.346 62.1959 204.593 66.246 197.402 73.4553C190.212 80.6646 186.172 90.4424 186.172 100.638C186.172 106.936 183.676 112.977 179.234 117.43C174.792 121.884 168.767 124.386 162.485 124.386C156.203 124.386 150.178 121.884 145.736 117.43C141.294 112.977 138.798 106.936 138.798 100.638V100.335C138.621 79.7812 121.282 62.3977 100.781 62.2196H100.076C79.5815 62.3977 62.2369 79.7812 62.0593 100.335C62.0593 100.442 62.0593 100.555 62.0593 100.668C62.0593 103.786 61.4466 106.874 60.2562 109.756C59.0659 112.637 57.3211 115.255 55.1216 117.46C52.9221 119.665 50.3109 121.414 47.4371 122.608C44.5632 123.801 41.4831 124.416 38.3725 124.416V124.416C38.26 124.416 38.1475 124.416 38.035 124.416C17.5163 124.6 0.171729 141.989 0 162.537L0 162.869H14.6443C14.6443 156.571 17.1399 150.531 21.582 146.077C26.0241 141.623 32.049 139.121 38.3311 139.121H38.6627C59.1576 138.943 76.5023 121.56 76.674 101.006C76.674 100.893 76.674 100.786 76.674 100.674C76.674 94.3704 79.1714 88.3255 83.6169 83.8686C88.0623 79.4116 94.0917 76.9077 100.379 76.9077C106.665 76.9077 112.695 79.4116 117.14 83.8686C121.586 88.3255 124.083 94.3704 124.083 100.674V100.674V101C124.261 121.554 141.599 138.937 162.1 139.116H162.432C172.601 139.116 182.354 135.065 189.544 127.856C196.735 120.647 200.775 110.869 200.775 100.674C200.775 94.3752 203.27 88.3348 207.712 83.8812C212.155 79.4276 218.179 76.9256 224.462 76.9256C229.497 76.9263 234.484 75.9326 239.137 74.001C243.789 72.0695 248.017 69.238 251.578 65.6683C255.139 62.0985 257.964 57.8604 259.891 53.196C261.818 48.5317 262.81 43.5323 262.81 38.4836V38.4836C262.81 32.1805 265.308 26.1356 269.753 21.6786C274.199 17.2217 280.228 14.7178 286.515 14.7178C292.802 14.7178 298.831 17.2217 303.277 21.6786C307.722 26.1356 310.219 32.1805 310.219 38.4836V38.4836V38.816C310.397 59.3639 327.736 76.7534 348.237 76.9256C348.343 76.9256 348.456 76.9256 348.568 76.9256C354.85 76.9256 360.875 79.4276 365.317 83.8812C369.759 88.3348 372.255 94.3752 372.255 100.674V101.006C372.433 121.56 389.771 138.943 410.272 139.121H410.604C416.886 139.121 422.911 141.623 427.353 146.077C431.795 150.531 434.291 156.571 434.291 162.869H448.929C448.929 162.757 448.929 162.644 448.929 162.531C448.822 141.983 431.484 124.594 410.965 124.421Z" fill="#FFB000"/>
<path d="M215.058 100.507H224.118V91.4296C221.716 91.4296 219.413 92.3858 217.714 94.088C216.015 95.7902 215.059 98.0991 215.058 100.507V100.507Z" fill="black"/>
<path d="M162.45 100.656H153.372C153.372 103.065 154.326 105.375 156.025 107.079C157.724 108.782 160.029 109.739 162.432 109.739V109.739C163.622 109.739 164.8 109.504 165.899 109.048C166.998 108.591 167.997 107.922 168.838 107.079C169.68 106.235 170.347 105.234 170.802 104.132C171.258 103.03 171.492 101.849 171.492 100.656H162.45Z" fill="black"/>
<path d="M100.396 91.578C97.9933 91.578 95.6888 92.535 93.9897 94.2385C92.2906 95.942 91.3361 98.2525 91.3361 100.662H109.456C109.456 98.2525 108.502 95.942 106.803 94.2385C105.104 92.535 102.799 91.578 100.396 91.578V91.578Z" fill="black"/>
<path d="M38.3489 109.745C40.7518 109.745 43.0563 108.788 44.7554 107.085C46.4545 105.381 47.4091 103.071 47.4091 100.662H38.3489V109.745Z" fill="black"/>
<path d="M29.1584 163H38.2186V153.916C37.0288 153.916 35.8507 154.151 34.7514 154.608C33.6522 155.064 32.6534 155.733 31.8121 156.577C30.9708 157.42 30.3034 158.422 29.8481 159.524C29.3928 160.626 29.1584 161.807 29.1584 163V163Z" fill="black"/>
</g>
</svg>
