<svg width="1366" height="152" viewBox="0 0 1366 152" fill="none" xmlns="http://www.w3.org/2000/svg">
<mask id="mask0" mask-type="alpha" maskUnits="userSpaceOnUse" x="0" y="0" width="1367" height="152">
<rect width="1366.46" height="151.265" fill="#C4C4C4"/>
</mask>
<g mask="url(#mask0)">
<path d="M462.329 27.1072L462.66 27.1072C468.929 27.1072 474.942 29.604 479.375 34.0484C483.808 38.4928 486.298 44.5207 486.298 50.806C486.298 50.9186 486.298 51.0252 486.298 51.1378C486.475 71.6432 503.778 88.9967 524.236 89.1744L524.567 89.1744C530.836 89.1744 536.849 91.6712 541.282 96.1156C545.715 100.56 548.205 106.588 548.205 112.873V112.873L548.205 113.211C548.394 133.746 565.703 151.099 586.155 151.271L586.823 151.271C607.276 151.099 624.585 133.746 624.756 113.241L624.756 112.903C624.756 106.618 627.246 100.59 631.679 96.1453C636.112 91.7009 642.124 89.204 648.394 89.204C658.542 89.204 668.274 85.1623 675.45 77.9679C682.626 70.7736 686.657 61.0159 686.657 50.8416C686.657 44.5563 689.148 38.5284 693.581 34.084C698.013 29.6396 704.026 27.1428 710.295 27.1428C716.564 27.1428 722.576 29.6396 727.009 34.084C731.442 38.5284 733.933 44.5563 733.933 50.8416L733.933 51.1437C734.11 71.6551 751.413 89.0026 771.871 89.1803L772.574 89.1803C793.027 89.0026 810.336 71.6551 810.513 51.1438C810.513 51.0371 810.513 50.9245 810.513 50.812C810.513 47.6998 811.124 44.6181 812.312 41.7428C813.5 38.8676 815.241 36.255 817.436 34.0544C819.631 31.8537 822.237 30.1081 825.105 28.9171C827.973 27.7261 831.047 27.1132 834.151 27.1132V27.1132C834.263 27.1132 834.375 27.1132 834.488 27.1132C854.964 26.9295 872.272 9.57605 872.444 -10.9293L872.444 -11.2611L857.83 -11.2611C857.83 -4.97581 855.339 1.05206 850.907 5.49645C846.474 9.94084 840.461 12.4377 834.192 12.4377L833.861 12.4377C813.409 12.6154 796.1 29.9629 795.929 50.4743C795.929 50.5868 795.929 50.6935 795.929 50.806C795.929 57.0961 793.436 63.1285 789 67.5762C784.564 72.0239 778.547 74.5226 772.273 74.5226C765.999 74.5226 759.982 72.0239 755.546 67.5762C751.11 63.1285 748.618 57.0961 748.618 50.806V50.806L748.618 50.4802C748.44 29.9689 731.138 12.6213 710.679 12.4436L710.348 12.4436C700.2 12.4436 690.467 16.4853 683.292 23.6797C676.116 30.874 672.085 40.6317 672.085 50.806C672.085 57.0913 669.594 63.1192 665.161 67.5636C660.728 72.008 654.716 74.5048 648.447 74.5048C643.421 74.5041 638.445 75.4958 633.802 77.4233C629.159 79.3509 624.94 82.1765 621.387 85.7388C617.833 89.3012 615.014 93.5305 613.091 98.1853C611.167 102.84 610.177 107.829 610.177 112.867V112.867C610.177 119.157 607.685 125.19 603.249 129.637C598.813 134.085 592.796 136.584 586.522 136.584C580.248 136.584 574.231 134.085 569.795 129.637C565.359 125.19 562.866 119.157 562.866 112.867V112.867L562.866 112.536C562.689 92.0301 545.386 74.6766 524.928 74.5048C524.821 74.5048 524.709 74.5048 524.597 74.5048C518.328 74.5048 512.315 72.008 507.883 67.5636C503.45 63.1192 500.959 57.0913 500.959 50.806L500.959 50.4742C500.782 29.9629 483.479 12.6154 463.021 12.4376L462.69 12.4376C456.421 12.4376 450.408 9.94081 445.975 5.49642C441.542 1.05203 439.052 -4.97585 439.052 -11.2612L424.444 -11.2612C424.444 -11.1486 424.444 -11.036 424.444 -10.9235C424.55 9.58193 441.853 26.9354 462.329 27.1072Z" fill="#FFB000"/>
<path d="M657.831 50.9719L648.79 50.9719L648.79 60.0308C651.187 60.0308 653.485 59.0765 655.181 57.3778C656.876 55.6791 657.829 53.375 657.831 50.9719V50.9719Z" fill="black"/>
<path d="M524.567 59.8885L524.567 50.8238L515.514 50.8238C515.514 52.0152 515.748 53.1949 516.204 54.2954C516.659 55.396 517.326 56.3958 518.166 57.2377C519.007 58.0796 520.005 58.7471 521.104 59.2019C522.202 59.6568 523.379 59.8901 524.567 59.8885V59.8885Z" fill="black"/>
<path d="M462.642 50.8239L471.684 50.8239C471.684 48.4197 470.731 46.114 469.036 44.4141C467.34 42.7141 465.04 41.759 462.642 41.759L462.642 50.8239Z" fill="black"/>
<path d="M586.486 121.968C587.674 121.968 588.849 121.733 589.946 121.278C591.043 120.822 592.04 120.154 592.88 119.313C593.719 118.471 594.385 117.472 594.84 116.372C595.294 115.272 595.528 114.093 595.528 112.903L577.445 112.903C577.445 115.307 578.398 117.613 580.093 119.313C581.789 121.013 584.088 121.968 586.486 121.968V121.968Z" fill="black"/>
<path d="M524.567 103.838L524.567 112.903L533.609 112.903C533.609 110.499 532.656 108.193 530.961 106.493C529.265 104.793 526.965 103.838 524.567 103.838V103.838Z" fill="black"/>
<path d="M648.411 103.838C646.013 103.838 643.714 104.793 642.018 106.493C640.323 108.193 639.37 110.499 639.37 112.903L648.411 112.903L648.411 103.838Z" fill="black"/>
<path d="M710.33 50.8239L719.39 50.8239C719.39 48.4197 718.437 46.114 716.741 44.4141C715.046 42.7141 712.746 41.759 710.348 41.759V41.759C709.161 41.759 707.985 41.9935 706.888 42.4491C705.791 42.9046 704.795 43.5723 703.955 44.4141C703.115 45.2558 702.449 46.2551 701.995 47.3549C701.541 48.4547 701.307 49.6334 701.307 50.8239L710.33 50.8239Z" fill="black"/>
<path d="M772.255 59.8827C774.653 59.8827 776.953 58.9277 778.648 57.2277C780.344 55.5277 781.297 53.222 781.297 50.8179L763.214 50.8179C763.214 53.222 764.166 55.5277 765.862 57.2277C767.558 58.9277 769.857 59.8827 772.255 59.8827V59.8827Z" fill="black"/>
<path d="M834.174 41.7531C831.776 41.7531 829.477 42.7081 827.781 44.4081C826.085 46.1081 825.133 48.4137 825.133 50.8179L834.174 50.8179L834.174 41.7531Z" fill="black"/>
<path d="M1329.09 27.1013L1329.43 27.1013C1335.7 27.1013 1341.71 29.5982 1346.14 34.0426C1350.57 38.487 1353.06 44.5148 1353.06 50.8002C1353.06 50.9127 1353.06 51.0194 1353.06 51.1319C1353.24 71.6373 1370.54 88.9908 1391 89.1685L1391.33 89.1685C1397.6 89.1685 1403.61 91.6654 1408.05 96.1098C1412.48 100.554 1414.97 106.582 1414.97 112.867V112.867L1414.97 113.205C1415.16 133.74 1432.47 151.094 1452.92 151.265L1453.59 151.265C1474.04 151.094 1491.35 133.74 1491.52 113.235L1491.52 112.897C1491.52 106.612 1494.01 100.584 1498.44 96.1394C1502.88 91.695 1508.89 89.1982 1515.16 89.1982C1525.31 89.1982 1535.04 85.1564 1542.22 77.9621C1549.39 70.7677 1553.42 61.0101 1553.42 50.8357C1553.42 44.5504 1555.91 38.5225 1560.35 34.0781C1564.78 29.6338 1570.79 27.1369 1577.06 27.1369C1583.33 27.1369 1589.34 29.6338 1593.78 34.0781C1598.21 38.5225 1600.7 44.5504 1600.7 50.8357L1600.7 51.1379C1600.88 71.6492 1618.18 88.9967 1638.64 89.1745L1639.34 89.1745C1659.79 88.9967 1677.1 71.6492 1677.28 51.1379C1677.28 51.0313 1677.28 50.9187 1677.28 50.8061C1677.28 47.6939 1677.89 44.6122 1679.08 41.737C1680.27 38.8617 1682.01 36.2492 1684.2 34.0485C1686.4 31.8479 1689 30.1022 1691.87 28.9113C1694.74 27.7203 1697.81 27.1073 1700.92 27.1073V27.1073C1701.03 27.1073 1701.14 27.1073 1701.25 27.1073C1721.73 26.9236 1739.04 9.57019 1739.21 -10.9352L1739.21 -11.267L1724.6 -11.267C1724.6 -4.98167 1722.11 1.04621 1717.67 5.49059C1713.24 9.93498 1707.23 12.4318 1700.96 12.4318L1700.63 12.4318C1680.17 12.6096 1662.87 29.9571 1662.69 50.4684C1662.69 50.581 1662.69 50.6876 1662.69 50.8002C1662.69 57.0902 1660.2 63.1226 1655.77 67.5703C1651.33 72.0181 1645.31 74.5168 1639.04 74.5168C1632.76 74.5168 1626.75 72.0181 1622.31 67.5703C1617.88 63.1226 1615.38 57.0902 1615.38 50.8002V50.8002L1615.38 50.4743C1615.21 29.963 1597.9 12.6155 1577.44 12.4377L1577.11 12.4377C1566.97 12.4377 1557.23 16.4795 1550.06 23.6738C1542.88 30.8682 1538.85 40.6258 1538.85 50.8002C1538.85 57.0855 1536.36 63.1134 1531.93 67.5578C1527.49 72.0022 1521.48 74.499 1515.21 74.499C1510.19 74.4982 1505.21 75.4899 1500.57 77.4174C1495.92 79.345 1491.71 82.1706 1488.15 85.733C1484.6 89.2953 1481.78 93.5247 1479.86 98.1794C1477.93 102.834 1476.94 107.823 1476.94 112.861V112.861C1476.94 119.151 1474.45 125.184 1470.01 129.632C1465.58 134.079 1459.56 136.578 1453.29 136.578C1447.01 136.578 1441 134.079 1436.56 129.632C1432.12 125.184 1429.63 119.151 1429.63 112.861V112.861L1429.63 112.53C1429.45 92.0243 1412.15 74.6708 1391.69 74.499C1391.59 74.499 1391.47 74.499 1391.36 74.499C1385.09 74.499 1379.08 72.0021 1374.65 67.5577C1370.22 63.1134 1367.72 57.0855 1367.72 50.8002L1367.72 50.4684C1367.55 29.9571 1350.24 12.6095 1329.79 12.4318L1329.46 12.4318C1323.19 12.4318 1317.17 9.93495 1312.74 5.49056C1308.31 1.04617 1305.82 -4.98171 1305.82 -11.267L1291.21 -11.267C1291.21 -11.1545 1291.21 -11.0419 1291.21 -10.9293C1291.32 9.57607 1308.62 26.9295 1329.09 27.1013Z" fill="#FFB000"/>
<path d="M1329.41 50.818L1338.45 50.818C1338.45 48.4139 1337.5 46.1082 1335.8 44.4082C1334.11 42.7082 1331.81 41.7532 1329.41 41.7532L1329.41 50.818Z" fill="black"/>
</g>
</svg>
