<svg width="193" height="25" viewBox="0 0 193 25" fill="none" xmlns="http://www.w3.org/2000/svg">
<path d="M2.05656 23.105C1.13944 22.2546 0.683594 21.0868 0.683594 19.6014C0.683594 17.9868 1.22084 16.7705 2.29534 15.947C3.36983 15.1236 4.86219 14.7092 6.76697 14.7092H10.9184V13.4875C10.9184 12.6156 10.6308 11.9967 10.061 11.6254C9.49119 11.254 8.69346 11.071 7.66238 11.071C6.98946 11.071 6.1646 11.1625 5.19322 11.3509C4.10787 11.5931 3.07136 11.8999 2.08369 12.2658V8.06795C4.15671 7.47594 6.14832 7.17993 8.0531 7.17993C9.5129 7.17993 10.761 7.40059 11.8084 7.84729C12.8558 8.29399 13.6644 8.98287 14.2342 9.91932C14.804 10.8558 15.0916 12.0559 15.0916 13.5198V24.0576H11.027V21.2482H10.8045C10.1695 22.4161 9.40979 23.2341 8.5198 23.697C7.62982 24.1598 6.64758 24.3912 5.56223 24.3912C4.14043 24.3912 2.97368 23.9661 2.05656 23.1104V23.105ZM8.78571 21.0222C9.30668 20.8015 9.77338 20.4086 10.1858 19.8382C10.5982 19.2731 10.8425 18.5088 10.913 17.5455H7.52129C6.90264 17.5455 6.4088 17.5885 6.03436 17.6693C5.65991 17.7554 5.3723 17.9276 5.16608 18.1967C4.95986 18.4658 4.85676 18.8587 4.85676 19.3807C4.85676 20.0104 5.0684 20.5001 5.48626 20.8392C5.90412 21.1836 6.50106 21.3559 7.26623 21.3559C7.75464 21.3559 8.25932 21.2428 8.78029 21.0222H8.78571Z" fill="#3A352A"/>
<path d="M18.5426 7.50825H22.6344V11.0657H22.9166C23.0685 10.6028 23.253 10.1831 23.4755 9.8117C23.698 9.44035 23.9531 9.10667 24.2298 8.81067C24.7345 8.25633 25.3369 7.84193 26.0369 7.57283C26.737 7.30374 27.4642 7.16919 28.2076 7.16919C29.9442 7.16919 31.3334 7.69662 32.3699 8.75147C33.4064 9.80632 33.9274 11.281 33.9274 13.17V24.0414H29.7488V14.4509C29.7488 13.3584 29.5155 12.5188 29.0488 11.9376C28.5821 11.3563 27.7681 11.0603 26.6122 11.0603C25.9772 11.0603 25.3694 11.1787 24.7888 11.4101C24.2081 11.6415 23.7197 12.0721 23.3181 12.7018C22.9165 13.3315 22.7158 14.2033 22.7158 15.3174V24.0468H18.5372V7.50287L18.5426 7.50825Z" fill="#3A352A"/>
<path d="M39.6203 23.5088C38.6109 22.9275 37.7969 21.9965 37.1837 20.7156C36.5651 19.4347 36.2612 17.8147 36.2612 15.8503C36.2612 13.8859 36.5759 12.2552 37.2 10.9582C37.8241 9.66115 38.6598 8.70855 39.6963 8.09502C40.7328 7.48148 41.8616 7.17471 43.0717 7.17471C44.3633 7.17471 45.5463 7.52454 46.6317 8.2188C47.717 8.91307 48.4713 9.86566 48.9 11.0658H49.0954V1.80896H53.274V24.0523H49.0954V20.4949H48.9C48.5636 21.3291 48.0969 22.0395 47.4999 22.6208C46.903 23.202 46.2138 23.6433 45.4378 23.9393C44.6618 24.2353 43.8423 24.386 42.9849 24.386C41.753 24.386 40.6297 24.0954 39.6203 23.5088ZM46.9627 19.9083C47.6356 19.5208 48.1566 18.9665 48.531 18.256C48.9055 17.5402 49.09 16.7222 49.09 15.7965C49.09 14.3865 48.6938 13.2509 47.8961 12.379C47.1038 11.5071 46.0619 11.0712 44.7703 11.0712C43.8532 11.0712 43.0717 11.2811 42.4151 11.6955C41.7585 12.1099 41.2646 12.6912 40.9282 13.4339C40.5917 14.1766 40.4235 15.0161 40.4235 15.9634C40.4235 17.3734 40.7925 18.4767 41.5305 19.284C42.2686 20.0913 43.3214 20.4949 44.6835 20.4949C45.5246 20.4949 46.2789 20.3012 46.9518 19.9137L46.9627 19.9083Z" fill="#3A352A"/>
<path d="M56.7796 7.50824H60.8714V10.9257H61.1536C61.3055 10.479 61.4792 10.0646 61.6854 9.67714C61.8916 9.28965 62.1249 8.93444 62.3854 8.62229C62.6296 8.32629 62.8955 8.07334 63.1832 7.85806C63.4708 7.64279 63.7909 7.47595 64.1383 7.35755C64.4856 7.23914 64.8546 7.17456 65.2453 7.17456C65.9942 7.17456 66.6563 7.26605 67.2369 7.45442V11.9052C66.716 11.6254 66.2221 11.4478 65.7663 11.3617C65.3104 11.2809 64.8058 11.2379 64.2685 11.2379C63.2211 11.2379 62.4071 11.6146 61.8319 12.3627C61.2512 13.1108 60.9636 14.1441 60.9636 15.4627V24.0522H56.785V7.50824H56.7796Z" fill="#3A352A"/>
<path d="M71.9423 23.3407C70.6344 22.6464 69.6088 21.6454 68.8707 20.3376C68.1327 19.0298 67.7637 17.496 67.7637 15.7361C67.7637 14.0677 68.111 12.5877 68.8002 11.2852C69.4894 9.9882 70.4445 8.9764 71.6601 8.25523C72.8757 7.53406 74.2378 7.17347 75.7518 7.17347C77.2659 7.17347 78.6226 7.51253 79.7025 8.19065C80.7878 8.86877 81.6073 9.78907 82.1717 10.9569C82.7306 12.1248 83.0128 13.4434 83.0128 14.9073V17.4367H72.1648C72.3493 18.1203 72.664 18.6907 73.1036 19.1482C73.5431 19.6003 74.0695 19.9393 74.6882 20.16C75.3068 20.3806 75.996 20.4937 76.7612 20.4937C77.5264 20.4937 78.3132 20.4022 79.1164 20.2138C79.9196 20.0308 80.7227 19.751 81.5259 19.3796V23.6905C79.8436 24.1534 78.145 24.3848 76.4247 24.3848C74.7045 24.3848 73.2501 24.035 71.9368 23.3407H71.9423ZM75.4479 14.5951H78.8125C78.7582 13.4111 78.4923 12.4746 78.0256 11.7858C77.5589 11.1023 76.7069 10.7578 75.4751 10.7578C74.7099 10.7578 74.0804 10.9247 73.5811 11.2583C73.0873 11.592 72.7183 12.0441 72.4741 12.6092C72.2299 13.1743 72.0725 13.8363 71.9965 14.5951H75.4425H75.4479ZM74.8022 2.86257C75.1766 1.74851 75.4479 0.914321 75.6162 0.359985H79.8219C79.187 1.49018 78.7203 2.33514 78.4218 2.88948C78.1233 3.44381 77.6675 4.27263 77.0488 5.36515H73.9664L74.8076 2.86257H74.8022Z" fill="#3A352A"/>
<path d="M95.2561 23.2718C93.9374 22.5291 92.9117 21.5066 92.1737 20.1988C91.4357 18.891 91.0667 17.4163 91.0667 15.7641C91.0667 14.1118 91.4465 12.6372 92.2008 11.3294C92.9552 10.0216 94.0025 9.00441 95.3429 8.27247C96.6779 7.54053 98.1811 7.17456 99.8417 7.17456C101.502 7.17456 102.967 7.54591 104.286 8.28861C105.605 9.03132 106.631 10.0539 107.369 11.3617C108.107 12.6695 108.476 14.1441 108.476 15.7964C108.476 17.4486 108.096 18.9232 107.341 20.231C106.587 21.5388 105.54 22.556 104.199 23.288C102.864 24.0199 101.361 24.3859 99.7006 24.3859C98.04 24.3859 96.5748 24.0145 95.2561 23.2718ZM102.181 19.9081C102.864 19.5206 103.385 18.9663 103.749 18.2559C104.113 17.5401 104.297 16.722 104.297 15.7964C104.297 14.3863 103.885 13.2507 103.065 12.3789C102.24 11.507 101.139 11.0711 99.7548 11.0711C98.8377 11.0711 98.04 11.2648 97.3562 11.6523C96.6725 12.0398 96.1515 12.5941 95.7879 13.3045C95.4243 14.0203 95.2398 14.8384 95.2398 15.7641C95.2398 16.6898 95.4243 17.5132 95.7879 18.2236C96.1515 18.9394 96.6779 19.4937 97.3725 19.892C98.0617 20.2902 98.8649 20.4894 99.782 20.4894C100.699 20.4894 101.497 20.2956 102.181 19.9081Z" fill="#3A352A"/>
<path d="M110.993 21.0429V1.80261H115.171V24.046H110.993V21.0429Z" fill="#3A352A"/>
<path d="M118.997 4.43468C118.482 3.9234 118.227 3.30987 118.227 2.58331C118.227 1.85675 118.482 1.27013 118.997 0.76423C119.513 0.252949 120.132 0 120.864 0C121.597 0 122.188 0.252949 122.698 0.76423C123.214 1.27551 123.469 1.88366 123.469 2.58331C123.469 3.28296 123.214 3.9234 122.698 4.43468C122.183 4.94596 121.57 5.19891 120.864 5.19891C120.159 5.19891 119.513 4.94596 118.997 4.43468ZM118.813 21.7267V7.50775H122.991V24.0517H118.813V21.7321V21.7267Z" fill="#3A352A"/>
<path d="M127.925 22.9644C126.97 22.001 126.497 20.6502 126.497 18.9064V7.50757H130.676V18.6535C130.676 19.5415 130.833 20.1604 131.154 20.5049C131.474 20.8493 131.908 21.0215 132.472 21.0215C133.238 21.0215 133.872 20.6717 134.377 19.9667C134.882 19.2616 135.256 18.3306 135.5 17.1735C135.745 16.0163 135.864 14.7408 135.864 13.3523C135.864 12.9271 135.864 12.502 135.848 12.0876C135.837 11.6678 135.815 11.248 135.777 10.8228C135.739 10.247 135.696 9.68185 135.652 9.12752C135.604 8.57318 135.544 8.03499 135.468 7.51295H139.646C139.891 9.21901 140.01 11.0704 140.01 13.0725C140.01 15.6289 139.684 17.7547 139.028 19.4392C138.371 21.1238 137.449 22.3778 136.255 23.1904C135.061 24.0085 133.617 24.4121 131.935 24.4121C130.253 24.4121 128.88 23.9277 127.925 22.9644Z" fill="#3A352A"/>
<path d="M146.066 23.3418C144.758 22.6475 143.732 21.6465 142.994 20.3387C142.256 19.0309 141.887 17.497 141.887 15.7372C141.887 14.0688 142.234 12.5887 142.923 11.2863C143.613 9.98929 144.568 8.9775 145.783 8.25632C146.999 7.53515 148.361 7.17456 149.875 7.17456C151.389 7.17456 152.746 7.51362 153.826 8.19174C154.911 8.86986 155.731 9.79016 156.295 10.958C156.854 12.1259 157.136 13.4445 157.136 14.9083V17.4378H146.288C146.473 18.1213 146.787 18.6918 147.227 19.1493C147.666 19.6014 148.193 19.9404 148.811 20.1611C149.43 20.3817 150.119 20.4948 150.884 20.4948C151.65 20.4948 152.437 20.4033 153.24 20.2149C154.043 20.0319 154.846 19.7521 155.649 19.3807V23.6916C153.967 24.1545 152.268 24.3859 150.548 24.3859C148.828 24.3859 147.373 24.036 146.06 23.3418H146.066ZM149.571 14.5962H152.936C152.882 13.4122 152.616 12.4757 152.149 11.7868C151.682 11.1033 150.83 10.7589 149.598 10.7589C148.833 10.7589 148.204 10.9257 147.704 11.2594C147.211 11.5931 146.842 12.0452 146.597 12.6103C146.353 13.1754 146.196 13.8374 146.12 14.5962H149.566H149.571Z" fill="#3A352A"/>
<path d="M159.757 4.43468C159.241 3.9234 158.986 3.30987 158.986 2.58331C158.986 1.85675 159.241 1.27013 159.757 0.76423C160.273 0.252949 160.891 0 161.624 0C162.356 0 162.948 0.252949 163.458 0.76423C163.974 1.27551 164.229 1.88366 164.229 2.58331C164.229 3.28296 163.974 3.9234 163.458 4.43468C162.942 4.94596 162.329 5.19891 161.624 5.19891C160.918 5.19891 160.273 4.94596 159.757 4.43468ZM159.572 21.7267V7.50775H163.751V24.0517H159.572V21.7321V21.7267Z" fill="#3A352A"/>
<path d="M167.398 7.50824H171.49V10.9257H171.772C171.924 10.479 172.098 10.0646 172.304 9.67714C172.51 9.28965 172.744 8.93444 173.004 8.62229C173.248 8.32629 173.514 8.07334 173.802 7.85806C174.09 7.64279 174.41 7.47595 174.757 7.35755C175.104 7.23914 175.473 7.17456 175.864 7.17456C176.613 7.17456 177.275 7.26605 177.856 7.45442V11.9052C177.335 11.6254 176.841 11.4478 176.385 11.3617C175.929 11.2809 175.425 11.2379 174.887 11.2379C173.84 11.2379 173.026 11.6146 172.451 12.3627C171.87 13.1108 171.582 14.1441 171.582 15.4627V24.0522H167.404V7.50824H167.398Z" fill="#3A352A"/>
<path d="M179.842 23.105C178.925 22.2546 178.469 21.0868 178.469 19.6014C178.469 17.9868 179.006 16.7705 180.081 15.947C181.155 15.1236 182.648 14.7092 184.552 14.7092H188.704V13.4875C188.704 12.6156 188.416 11.9967 187.846 11.6254C187.277 11.254 186.479 11.071 185.448 11.071C184.775 11.071 183.95 11.1625 182.979 11.3509C181.893 11.5931 180.857 11.8999 179.869 12.2658V8.06795C181.942 7.47594 183.934 7.17993 185.838 7.17993C187.298 7.17993 188.546 7.40059 189.594 7.84729C190.641 8.29399 191.45 8.98287 192.019 9.91932C192.589 10.8558 192.877 12.0559 192.877 13.5198V24.0576H188.812V21.2482H188.59C187.955 22.4161 187.195 23.2341 186.305 23.697C185.415 24.1598 184.433 24.3912 183.348 24.3912C181.926 24.3912 180.759 23.9661 179.842 23.1104V23.105ZM186.571 21.0222C187.092 20.8015 187.559 20.4086 187.971 19.8382C188.384 19.2731 188.628 18.5088 188.698 17.5455H185.307C184.688 17.5455 184.194 17.5885 183.82 17.6693C183.445 17.7554 183.158 17.9276 182.951 18.1967C182.745 18.4658 182.642 18.8587 182.642 19.3807C182.642 20.0104 182.854 20.5001 183.272 20.8392C183.689 21.1836 184.286 21.3559 185.052 21.3559C185.54 21.3559 186.045 21.2428 186.566 21.0222H186.571Z" fill="#3A352A"/>
</svg>
