<svg width="32" height="47" viewBox="0 0 32 47" fill="none" xmlns="http://www.w3.org/2000/svg">
<rect width="32" height="47" fill="#F5F5F5"/>
<rect width="390" height="3060" transform="translate(-20 -40)" fill="white"/>
<circle cx="16.1783" cy="31.5867" r="11.5561" fill="white"/>
<path d="M15.7755 15.7045C7.07647 15.7045 0 22.7225 0 31.3496C0 35.935 0.580661 39.078 1.88308 41.5376C3.20178 44.0294 5.96941 47.0002 11.6295 47.0002C15.667 47.0002 20.3448 45.4879 24.1707 42.9476V46.3813H31.5511V31.3496C31.5511 22.7225 24.4746 15.7045 15.7755 15.7045ZM7.38036 31.3496C7.38036 26.7589 11.1465 23.0238 15.7755 23.0238C20.4045 23.0238 24.1707 26.7589 24.1707 31.3496C24.1707 33.0665 22.6783 35.1008 20.1766 36.7854C17.5772 38.5399 14.2181 39.6754 11.6241 39.6754C9.41539 39.6754 8.8076 38.8789 8.41144 38.1255C7.7114 36.8069 7.37494 34.5895 7.37494 31.3443" fill="#FFB607"/>
<path d="M15.7752 35.0633C17.8432 35.0633 19.5197 33.4007 19.5197 31.3497C19.5197 29.2988 17.8432 27.6362 15.7752 27.6362C13.7072 27.6362 12.0308 29.2988 12.0308 31.3497C12.0308 33.4007 13.7072 35.0633 15.7752 35.0633Z" fill="#3A352A"/>
<path d="M31.5565 15.6452H24.1761C24.1761 11.0544 20.41 7.31938 15.781 7.31938C11.1519 7.31938 7.38579 11.0544 7.38579 15.6452H0C0 7.01799 7.07647 0 15.7755 0C24.4746 0 31.5511 7.01799 31.5511 15.6452H31.5565Z" fill="#3A352A"/>
</svg>
