<svg width="30" height="30" viewBox="0 0 30 30" fill="none" xmlns="http://www.w3.org/2000/svg">
<g clip-path="url(#clip0_925_18805)">
<path d="M8.78757 0.10509C7.19157 0.18039 6.10166 0.43509 5.14886 0.80949C4.16276 1.19379 3.32696 1.70949 2.49536 2.54409C1.66376 3.37869 1.15166 4.21509 0.770063 5.20269C0.400763 6.15759 0.150563 7.24839 0.0800633 8.84529C0.0095633 10.4422 -0.00603671 10.9555 0.00176329 15.0289C0.00956329 19.1023 0.0275633 19.6129 0.104963 21.2131C0.181163 22.8088 0.434963 23.8984 0.809363 24.8515C1.19426 25.8376 1.70936 26.6731 2.54426 27.505C3.37916 28.3369 4.21496 28.8478 5.20496 29.23C6.15896 29.5987 7.25007 29.8501 8.84667 29.92C10.4433 29.9899 10.9572 30.0061 15.0294 29.9983C19.1016 29.9905 19.6143 29.9725 21.2142 29.8966C22.8141 29.8207 23.898 29.5651 24.8514 29.1925C25.8375 28.8067 26.6736 28.2925 27.5049 27.4573C28.3362 26.6221 28.848 25.7851 29.2293 24.7969C29.5989 23.8429 29.85 22.7518 29.9193 21.1564C29.9892 19.5553 30.0057 19.0441 29.9979 14.9713C29.9901 10.8985 29.9718 10.3879 29.8959 8.78829C29.82 7.18869 29.5659 6.10239 29.1918 5.14869C28.8063 4.16259 28.2918 3.32769 27.4572 2.49519C26.6226 1.66269 25.785 1.15119 24.7971 0.77079C23.8425 0.40149 22.752 0.14979 21.1554 0.0807895C19.5588 0.0117895 19.0449 -0.00591048 14.9712 0.00188952C10.8975 0.00968952 10.3875 0.0270895 8.78757 0.10509ZM8.96277 27.2215C7.50027 27.1579 6.70616 26.9149 6.17696 26.7115C5.47616 26.4415 4.97696 26.1151 4.44956 25.5928C3.92216 25.0705 3.59816 24.5695 3.32456 23.8702C3.11906 23.341 2.87156 22.5478 2.80316 21.0853C2.72876 19.5046 2.71316 19.03 2.70446 15.0253C2.69576 11.0206 2.71106 10.5466 2.78036 8.96529C2.84276 7.50399 3.08726 6.70899 3.29036 6.18009C3.56036 5.47839 3.88556 4.98009 4.40906 4.45299C4.93256 3.92589 5.43206 3.60129 6.13196 3.32769C6.66056 3.12129 7.45377 2.87589 8.91567 2.80629C10.4976 2.73129 10.9716 2.71629 14.9757 2.70759C18.9798 2.69889 19.455 2.71389 21.0375 2.78349C22.4988 2.84709 23.2941 3.08919 23.8224 3.29349C24.5235 3.56349 25.0224 3.88779 25.5495 4.41219C26.0766 4.93659 26.4015 5.43429 26.6751 6.13569C26.8818 6.66279 27.1272 7.45569 27.1962 8.91849C27.2715 10.5004 27.2886 10.9747 27.2958 14.9785C27.303 18.9823 27.2889 19.4578 27.2196 21.0385C27.1557 22.501 26.9133 23.2954 26.7096 23.8252C26.4396 24.5257 26.1141 25.0252 25.5903 25.552C25.0665 26.0788 24.5676 26.4034 23.8674 26.677C23.3394 26.8831 22.5453 27.1291 21.0846 27.1987C19.5027 27.2731 19.0287 27.2887 15.0231 27.2974C11.0175 27.3061 10.545 27.2899 8.96307 27.2215M21.1911 6.98319C21.1917 7.33922 21.2978 7.68708 21.4961 7.98277C21.6944 8.27846 21.976 8.5087 22.3051 8.64437C22.6343 8.78004 22.9963 8.81505 23.3454 8.74497C23.6945 8.67488 24.0149 8.50286 24.2662 8.25064C24.5175 7.99843 24.6883 7.67736 24.7571 7.32804C24.8259 6.97872 24.7896 6.61684 24.6527 6.28817C24.5158 5.9595 24.2846 5.67881 23.9882 5.48159C23.6917 5.28437 23.3435 5.17948 22.9875 5.18019C22.5102 5.18114 22.0528 5.37162 21.7159 5.70973C21.3791 6.04784 21.1903 6.5059 21.1911 6.98319ZM7.29807 15.0151C7.30647 19.2691 10.7613 22.7098 15.0144 22.7017C19.2675 22.6936 22.7106 19.2391 22.7025 14.9851C22.6944 10.7311 19.2387 7.28949 14.985 7.29789C10.7313 7.30629 7.28997 10.7617 7.29807 15.0151ZM9.99987 15.0097C9.99791 14.0208 10.2892 13.0535 10.837 12.2301C11.3848 11.4068 12.1645 10.7644 13.0774 10.3841C13.9903 10.0039 14.9954 9.90285 15.9657 10.0939C16.936 10.2849 17.8279 10.7593 18.5286 11.4572C19.2292 12.1551 19.7072 13.0451 19.902 14.0146C20.0969 14.9842 19.9999 15.9897 19.6232 16.9041C19.2466 17.8185 18.6073 18.6007 17.7861 19.1517C16.9649 19.7028 15.9988 19.9979 15.0099 19.9999C14.3532 20.0013 13.7027 19.8733 13.0956 19.6232C12.4884 19.3732 11.9364 19.006 11.4712 18.5426C11.0059 18.0792 10.6366 17.5287 10.3841 16.9225C10.1316 16.3163 10.0011 15.6663 9.99987 15.0097Z" fill="#3A352A"/>
</g>
<defs>
<clipPath id="clip0_925_18805">
<rect width="30" height="30" fill="white"/>
</clipPath>
</defs>
</svg>
